<svg xmlns="http://www.w3.org/2000/svg" width="295.4476318359375" height="140.5493621826172" viewBox="-33.654972076416016 -10.663602828979492 295.4476318359375 140.5493621826172"><title>Neo4j Graph Visualization</title><desc>Created using Neo4j (http://www.neo4j.com/)</desc><g class="layer relationships"><g class="relationship" transform="translate(117.86327560611113 86.39226031722555) rotate(536.5205079724485)"><path class="outline" fill="#A5ABB6" stroke="none" d="M 25 1.5 L 32.58408278149911 1.5 L 32.58408278149911 -1.5 L 25 -1.5 Z M 66.14658278149912 1.5 L 73.73066556299823 1.5 L 73.73066556299823 4.5 L 82.73066556299823 0 L 73.73066556299823 -4.5 L 73.73066556299823 -1.5 L 66.14658278149912 -1.5 Z"/><text text-anchor="middle" pointer-events="none" font-size="8px" fill="#000000" x="49.36533278149911" y="3" transform="rotate(180 49.36533278149911 0)" font-family="sans-serif">VENUE</text></g><g class="relationship" transform="translate(117.86327560611113 86.39226031722555) rotate(361.45742507072134)"><path class="outline" fill="#A5ABB6" stroke="none" d="M 25 1.5 L 33.09461756519898 1.5 L 33.09461756519898 -1.5 L 25 -1.5 Z M 72.87196131519897 1.5 L 80.96657888039796 1.5 L 80.96657888039796 4.5 L 89.96657888039796 0 L 80.96657888039796 -4.5 L 80.96657888039796 -1.5 L 72.87196131519897 -1.5 Z"/><text text-anchor="middle" pointer-events="none" font-size="8px" fill="#000000" x="52.98328944019898" y="3" font-family="sans-serif">AUTHOR</text></g><g class="relationship" transform="translate(117.86327560611113 86.39226031722555) rotate(538.9889665215849)"><path class="outline" fill="#A5ABB6" stroke="none" d="M 7.919364866996621 23.759917089572923 L 18.27212667109745 62.39695014113566 A 18.916697508022974 18.916697508022974 0 1 1 -18.27212667109745 62.39695014113566 L -10.248736272919308 32.45324952617454 L -4.453181315184898 34.006163796789664 L -6.4704761275630185 24.148145657226706 L -13.146513751786513 31.67679239086698 L -7.350958794052103 33.2297066614821 L -15.374349192230246 63.17340727644323 A 15.916697508022974 15.916697508022974 0 1 0 15.374349192230246 63.17340727644323 L 5.021587388129416 24.536374224880486 Z"/><text text-anchor="middle" pointer-events="none" font-size="8px" fill="#000000" x="0" y="95.20964923467838" transform="rotate(180 0 92.20964923467838)" font-family="sans-serif">REFEREN…</text></g></g><g class="layer nodes"><g class="node" transform="translate(117.86327560611113,86.39226031722555)"><circle class="outline" cx="0" cy="0" r="25" fill="#569480" stroke="#447666" stroke-width="2px"/><text text-anchor="middle" pointer-events="none" font-family="sans-serif" dy="1.5625" font-size="25" fill="#FFFFFF"/><text text-anchor="middle" pointer-events="none" x="0" y="5" font-size="10px" fill="#FFFFFF" font-family="sans-serif"> Article</text></g><g class="node" transform="translate(232.7926628402488,89.3163344353697)"><circle class="outline" cx="0" cy="0" r="25" fill="#D9C8AE" stroke="#c0a378" stroke-width="2px"/><text text-anchor="middle" pointer-events="none" font-family="sans-serif" dy="1.5625" font-size="25" fill="#2A2C34"/><text text-anchor="middle" pointer-events="none" x="0" y="5" font-size="10px" fill="#2A2C34" font-family="sans-serif"> Author</text></g><g class="node" transform="translate(2.8450279012671444,93.38575593806468)"><circle class="outline" cx="0" cy="0" r="32.5" fill="#DA7194" stroke="#cc3c6c" stroke-width="2px"/><text text-anchor="middle" pointer-events="none" font-family="sans-serif" dy="2.03125" font-size="32.5" fill="#FFFFFF"/><text text-anchor="middle" pointer-events="none" x="0" y="5" font-size="10px" fill="#FFFFFF" font-family="sans-serif"> Top200</text></g></g></svg>