<?xml version="1.0" encoding="utf-8" standalone="no"?>
<!DOCTYPE svg PUBLIC "-//W3C//DTD SVG 1.1//EN"
  "http://www.w3.org/Graphics/SVG/1.1/DTD/svg11.dtd">
<!-- Created with matplotlib (https://matplotlib.org/) -->
<svg height="364.6925pt" version="1.1" viewBox="0 0 831.7925 364.6925" width="831.7925pt" xmlns="http://www.w3.org/2000/svg" xmlns:xlink="http://www.w3.org/1999/xlink">
 <metadata>
  <rdf:RDF xmlns:cc="http://creativecommons.org/ns#" xmlns:dc="http://purl.org/dc/elements/1.1/" xmlns:rdf="http://www.w3.org/1999/02/22-rdf-syntax-ns#">
   <cc:Work>
    <dc:type rdf:resource="http://purl.org/dc/dcmitype/StillImage"/>
    <dc:date>2021-08-22T14:16:18.496095</dc:date>
    <dc:format>image/svg+xml</dc:format>
    <dc:creator>
     <cc:Agent>
      <dc:title>Matplotlib v3.3.4, https://matplotlib.org/</dc:title>
     </cc:Agent>
    </dc:creator>
   </cc:Work>
  </rdf:RDF>
 </metadata>
 <defs>
  <style type="text/css">*{stroke-linecap:butt;stroke-linejoin:round;}</style>
 </defs>
 <g id="figure_1">
  <g id="patch_1">
   <path d="M 0 364.6925 
L 831.7925 364.6925 
L 831.7925 0 
L 0 0 
z
" style="fill:#ffffff;"/>
  </g>
  <g id="axes_1">
   <g id="patch_2">
    <path d="M 43.3925 333.36 
L 824.5925 333.36 
L 824.5925 7.2 
L 43.3925 7.2 
z
" style="fill:#ffffff;"/>
   </g>
   <g id="matplotlib.axis_1">
    <g id="xtick_1">
     <g id="line2d_1">
      <defs>
       <path d="M 0 0 
L 0 6 
" id="m4ffbe7ec01" style="stroke:#262626;stroke-width:0.8;"/>
      </defs>
      <g>
       <use style="fill:#262626;stroke:#262626;stroke-width:0.8;" x="78.901591" xlink:href="#m4ffbe7ec01" y="333.36"/>
      </g>
     </g>
     <g id="text_1">
      <!-- 1970 -->
      <g style="fill:#262626;" transform="translate(61.106591 354.3125)scale(0.16 -0.16)">
       <defs>
        <path d="M 37.25 0 
L 28.46875 0 
L 28.46875 56 
Q 25.296875 52.984375 20.140625 49.953125 
Q 14.984375 46.921875 10.890625 45.40625 
L 10.890625 53.90625 
Q 18.265625 57.375 23.78125 62.296875 
Q 29.296875 67.234375 31.59375 71.875 
L 37.25 71.875 
z
" id="ArialMT-49"/>
        <path d="M 5.46875 16.546875 
L 13.921875 17.328125 
Q 14.984375 11.375 18.015625 8.6875 
Q 21.046875 6 25.78125 6 
Q 29.828125 6 32.875 7.859375 
Q 35.9375 9.71875 37.890625 12.8125 
Q 39.84375 15.921875 41.15625 21.1875 
Q 42.484375 26.46875 42.484375 31.9375 
Q 42.484375 32.515625 42.4375 33.6875 
Q 39.796875 29.5 35.234375 26.875 
Q 30.671875 24.265625 25.34375 24.265625 
Q 16.453125 24.265625 10.296875 30.703125 
Q 4.15625 37.15625 4.15625 47.703125 
Q 4.15625 58.59375 10.578125 65.234375 
Q 17 71.875 26.65625 71.875 
Q 33.640625 71.875 39.421875 68.109375 
Q 45.21875 64.359375 48.21875 57.390625 
Q 51.21875 50.4375 51.21875 37.25 
Q 51.21875 23.53125 48.234375 15.40625 
Q 45.265625 7.28125 39.375 3.03125 
Q 33.5 -1.21875 25.59375 -1.21875 
Q 17.1875 -1.21875 11.859375 3.4375 
Q 6.546875 8.109375 5.46875 16.546875 
z
M 41.453125 48.140625 
Q 41.453125 55.71875 37.421875 60.15625 
Q 33.40625 64.59375 27.734375 64.59375 
Q 21.875 64.59375 17.53125 59.8125 
Q 13.1875 55.03125 13.1875 47.40625 
Q 13.1875 40.578125 17.3125 36.296875 
Q 21.4375 32.03125 27.484375 32.03125 
Q 33.59375 32.03125 37.515625 36.296875 
Q 41.453125 40.578125 41.453125 48.140625 
z
" id="ArialMT-57"/>
        <path d="M 4.734375 62.203125 
L 4.734375 70.65625 
L 51.078125 70.65625 
L 51.078125 63.8125 
Q 44.234375 56.546875 37.515625 44.484375 
Q 30.8125 32.421875 27.15625 19.671875 
Q 24.515625 10.6875 23.78125 0 
L 14.75 0 
Q 14.890625 8.453125 18.0625 20.40625 
Q 21.234375 32.375 27.171875 43.484375 
Q 33.109375 54.59375 39.796875 62.203125 
z
" id="ArialMT-55"/>
        <path d="M 4.15625 35.296875 
Q 4.15625 48 6.765625 55.734375 
Q 9.375 63.484375 14.515625 67.671875 
Q 19.671875 71.875 27.484375 71.875 
Q 33.25 71.875 37.59375 69.546875 
Q 41.9375 67.234375 44.765625 62.859375 
Q 47.609375 58.5 49.21875 52.21875 
Q 50.828125 45.953125 50.828125 35.296875 
Q 50.828125 22.703125 48.234375 14.96875 
Q 45.65625 7.234375 40.5 3 
Q 35.359375 -1.21875 27.484375 -1.21875 
Q 17.140625 -1.21875 11.234375 6.203125 
Q 4.15625 15.140625 4.15625 35.296875 
z
M 13.1875 35.296875 
Q 13.1875 17.671875 17.3125 11.828125 
Q 21.4375 6 27.484375 6 
Q 33.546875 6 37.671875 11.859375 
Q 41.796875 17.71875 41.796875 35.296875 
Q 41.796875 52.984375 37.671875 58.78125 
Q 33.546875 64.59375 27.390625 64.59375 
Q 21.34375 64.59375 17.71875 59.46875 
Q 13.1875 52.9375 13.1875 35.296875 
z
" id="ArialMT-48"/>
       </defs>
       <use xlink:href="#ArialMT-49"/>
       <use x="55.615234" xlink:href="#ArialMT-57"/>
       <use x="111.230469" xlink:href="#ArialMT-55"/>
       <use x="166.845703" xlink:href="#ArialMT-48"/>
      </g>
     </g>
    </g>
    <g id="xtick_2">
     <g id="line2d_2">
      <g>
       <use style="fill:#262626;stroke:#262626;stroke-width:0.8;" x="230.004105" xlink:href="#m4ffbe7ec01" y="333.36"/>
      </g>
     </g>
     <g id="text_2">
      <!-- 1980 -->
      <g style="fill:#262626;" transform="translate(212.209105 354.3125)scale(0.16 -0.16)">
       <defs>
        <path d="M 17.671875 38.8125 
Q 12.203125 40.828125 9.5625 44.53125 
Q 6.9375 48.25 6.9375 53.421875 
Q 6.9375 61.234375 12.546875 66.546875 
Q 18.171875 71.875 27.484375 71.875 
Q 36.859375 71.875 42.578125 66.421875 
Q 48.296875 60.984375 48.296875 53.171875 
Q 48.296875 48.1875 45.671875 44.5 
Q 43.0625 40.828125 37.75 38.8125 
Q 44.34375 36.671875 47.78125 31.875 
Q 51.21875 27.09375 51.21875 20.453125 
Q 51.21875 11.28125 44.71875 5.03125 
Q 38.234375 -1.21875 27.640625 -1.21875 
Q 17.046875 -1.21875 10.546875 5.046875 
Q 4.046875 11.328125 4.046875 20.703125 
Q 4.046875 27.6875 7.59375 32.390625 
Q 11.140625 37.109375 17.671875 38.8125 
z
M 15.921875 53.71875 
Q 15.921875 48.640625 19.1875 45.40625 
Q 22.46875 42.1875 27.6875 42.1875 
Q 32.765625 42.1875 36.015625 45.375 
Q 39.265625 48.578125 39.265625 53.21875 
Q 39.265625 58.0625 35.90625 61.359375 
Q 32.5625 64.65625 27.59375 64.65625 
Q 22.5625 64.65625 19.234375 61.421875 
Q 15.921875 58.203125 15.921875 53.71875 
z
M 13.09375 20.65625 
Q 13.09375 16.890625 14.875 13.375 
Q 16.65625 9.859375 20.171875 7.921875 
Q 23.6875 6 27.734375 6 
Q 34.03125 6 38.125 10.046875 
Q 42.234375 14.109375 42.234375 20.359375 
Q 42.234375 26.703125 38.015625 30.859375 
Q 33.796875 35.015625 27.4375 35.015625 
Q 21.234375 35.015625 17.15625 30.90625 
Q 13.09375 26.8125 13.09375 20.65625 
z
" id="ArialMT-56"/>
       </defs>
       <use xlink:href="#ArialMT-49"/>
       <use x="55.615234" xlink:href="#ArialMT-57"/>
       <use x="111.230469" xlink:href="#ArialMT-56"/>
       <use x="166.845703" xlink:href="#ArialMT-48"/>
      </g>
     </g>
    </g>
    <g id="xtick_3">
     <g id="line2d_3">
      <g>
       <use style="fill:#262626;stroke:#262626;stroke-width:0.8;" x="381.10662" xlink:href="#m4ffbe7ec01" y="333.36"/>
      </g>
     </g>
     <g id="text_3">
      <!-- 1990 -->
      <g style="fill:#262626;" transform="translate(363.31162 354.3125)scale(0.16 -0.16)">
       <use xlink:href="#ArialMT-49"/>
       <use x="55.615234" xlink:href="#ArialMT-57"/>
       <use x="111.230469" xlink:href="#ArialMT-57"/>
       <use x="166.845703" xlink:href="#ArialMT-48"/>
      </g>
     </g>
    </g>
    <g id="xtick_4">
     <g id="line2d_4">
      <g>
       <use style="fill:#262626;stroke:#262626;stroke-width:0.8;" x="532.209134" xlink:href="#m4ffbe7ec01" y="333.36"/>
      </g>
     </g>
     <g id="text_4">
      <!-- 2000 -->
      <g style="fill:#262626;" transform="translate(514.414134 354.3125)scale(0.16 -0.16)">
       <defs>
        <path d="M 50.34375 8.453125 
L 50.34375 0 
L 3.03125 0 
Q 2.9375 3.171875 4.046875 6.109375 
Q 5.859375 10.9375 9.828125 15.625 
Q 13.8125 20.3125 21.34375 26.46875 
Q 33.015625 36.03125 37.109375 41.625 
Q 41.21875 47.21875 41.21875 52.203125 
Q 41.21875 57.421875 37.46875 61 
Q 33.734375 64.59375 27.734375 64.59375 
Q 21.390625 64.59375 17.578125 60.78125 
Q 13.765625 56.984375 13.71875 50.25 
L 4.6875 51.171875 
Q 5.609375 61.28125 11.65625 66.578125 
Q 17.71875 71.875 27.9375 71.875 
Q 38.234375 71.875 44.234375 66.15625 
Q 50.25 60.453125 50.25 52 
Q 50.25 47.703125 48.484375 43.546875 
Q 46.734375 39.40625 42.65625 34.8125 
Q 38.578125 30.21875 29.109375 22.21875 
Q 21.1875 15.578125 18.9375 13.203125 
Q 16.703125 10.84375 15.234375 8.453125 
z
" id="ArialMT-50"/>
       </defs>
       <use xlink:href="#ArialMT-50"/>
       <use x="55.615234" xlink:href="#ArialMT-48"/>
       <use x="111.230469" xlink:href="#ArialMT-48"/>
       <use x="166.845703" xlink:href="#ArialMT-48"/>
      </g>
     </g>
    </g>
    <g id="xtick_5">
     <g id="line2d_5">
      <g>
       <use style="fill:#262626;stroke:#262626;stroke-width:0.8;" x="683.311649" xlink:href="#m4ffbe7ec01" y="333.36"/>
      </g>
     </g>
     <g id="text_5">
      <!-- 2010 -->
      <g style="fill:#262626;" transform="translate(665.516649 354.3125)scale(0.16 -0.16)">
       <use xlink:href="#ArialMT-50"/>
       <use x="55.615234" xlink:href="#ArialMT-48"/>
       <use x="111.230469" xlink:href="#ArialMT-49"/>
       <use x="166.845703" xlink:href="#ArialMT-48"/>
      </g>
     </g>
    </g>
   </g>
   <g id="matplotlib.axis_2">
    <g id="ytick_1">
     <g id="line2d_6">
      <defs>
       <path d="M 0 0 
L -6 0 
" id="m6630fe4472" style="stroke:#262626;stroke-width:0.8;"/>
      </defs>
      <g>
       <use style="fill:#262626;stroke:#262626;stroke-width:0.8;" x="43.3925" xlink:href="#m6630fe4472" y="319.913658"/>
      </g>
     </g>
     <g id="text_6">
      <!-- 0 -->
      <g style="fill:#262626;" transform="translate(24.995 325.639908)scale(0.16 -0.16)">
       <use xlink:href="#ArialMT-48"/>
      </g>
     </g>
    </g>
    <g id="ytick_2">
     <g id="line2d_7">
      <g>
       <use style="fill:#262626;stroke:#262626;stroke-width:0.8;" x="43.3925" xlink:href="#m6630fe4472" y="250.958055"/>
      </g>
     </g>
     <g id="text_7">
      <!-- 50 -->
      <g style="fill:#262626;" transform="translate(16.0975 256.684305)scale(0.16 -0.16)">
       <defs>
        <path d="M 4.15625 18.75 
L 13.375 19.53125 
Q 14.40625 12.796875 18.140625 9.390625 
Q 21.875 6 27.15625 6 
Q 33.5 6 37.890625 10.78125 
Q 42.28125 15.578125 42.28125 23.484375 
Q 42.28125 31 38.0625 35.34375 
Q 33.84375 39.703125 27 39.703125 
Q 22.75 39.703125 19.328125 37.765625 
Q 15.921875 35.84375 13.96875 32.765625 
L 5.71875 33.84375 
L 12.640625 70.609375 
L 48.25 70.609375 
L 48.25 62.203125 
L 19.671875 62.203125 
L 15.828125 42.96875 
Q 22.265625 47.46875 29.34375 47.46875 
Q 38.71875 47.46875 45.15625 40.96875 
Q 51.609375 34.46875 51.609375 24.265625 
Q 51.609375 14.546875 45.953125 7.46875 
Q 39.0625 -1.21875 27.15625 -1.21875 
Q 17.390625 -1.21875 11.203125 4.25 
Q 5.03125 9.71875 4.15625 18.75 
z
" id="ArialMT-53"/>
       </defs>
       <use xlink:href="#ArialMT-53"/>
       <use x="55.615234" xlink:href="#ArialMT-48"/>
      </g>
     </g>
    </g>
    <g id="ytick_3">
     <g id="line2d_8">
      <g>
       <use style="fill:#262626;stroke:#262626;stroke-width:0.8;" x="43.3925" xlink:href="#m6630fe4472" y="182.002452"/>
      </g>
     </g>
     <g id="text_8">
      <!-- 100 -->
      <g style="fill:#262626;" transform="translate(7.2 187.728702)scale(0.16 -0.16)">
       <use xlink:href="#ArialMT-49"/>
       <use x="55.615234" xlink:href="#ArialMT-48"/>
       <use x="111.230469" xlink:href="#ArialMT-48"/>
      </g>
     </g>
    </g>
    <g id="ytick_4">
     <g id="line2d_9">
      <g>
       <use style="fill:#262626;stroke:#262626;stroke-width:0.8;" x="43.3925" xlink:href="#m6630fe4472" y="113.04685"/>
      </g>
     </g>
     <g id="text_9">
      <!-- 150 -->
      <g style="fill:#262626;" transform="translate(7.2 118.7731)scale(0.16 -0.16)">
       <use xlink:href="#ArialMT-49"/>
       <use x="55.615234" xlink:href="#ArialMT-53"/>
       <use x="111.230469" xlink:href="#ArialMT-48"/>
      </g>
     </g>
    </g>
    <g id="ytick_5">
     <g id="line2d_10">
      <g>
       <use style="fill:#262626;stroke:#262626;stroke-width:0.8;" x="43.3925" xlink:href="#m6630fe4472" y="44.091247"/>
      </g>
     </g>
     <g id="text_10">
      <!-- 200 -->
      <g style="fill:#262626;" transform="translate(7.2 49.817497)scale(0.16 -0.16)">
       <use xlink:href="#ArialMT-50"/>
       <use x="55.615234" xlink:href="#ArialMT-48"/>
       <use x="111.230469" xlink:href="#ArialMT-48"/>
      </g>
     </g>
    </g>
   </g>
   <g id="line2d_11">
    <path clip-path="url(#p413e76c4f3)" d="M 426.437374 318.534545 
L 441.547626 242.683383 
L 486.87838 318.534545 
L 517.098883 318.534545 
L 532.209134 314.397209 
L 547.319386 245.441607 
L 562.429637 260.611839 
L 577.539889 307.501649 
L 592.65014 301.985201 
L 607.760392 310.259873 
L 622.870643 256.474503 
L 637.980895 241.304271 
L 653.091146 270.265624 
L 668.201397 183.381564 
L 683.311649 256.474503 
L 698.4219 253.716279 
L 713.532152 268.886512 
L 728.642403 282.677632 
L 743.752655 288.19408 
L 758.862906 238.546047 
L 773.973158 60.640592 
" style="fill:none;stroke:#1f77b4;stroke-linecap:round;stroke-width:1.5;"/>
   </g>
   <g id="line2d_12">
    <path clip-path="url(#p413e76c4f3)" d="M 290.445111 318.534545 
L 320.665614 315.776321 
L 335.775866 318.534545 
L 350.886117 318.534545 
L 365.996368 318.534545 
L 396.216871 318.534545 
L 456.657877 318.534545 
L 471.768129 318.534545 
L 486.87838 286.814968 
L 532.209134 290.952304 
L 547.319386 257.853615 
L 562.429637 261.990951 
L 577.539889 263.370063 
L 592.65014 274.40296 
L 607.760392 277.161184 
L 622.870643 270.265624 
L 637.980895 266.128288 
L 653.091146 253.716279 
L 668.201397 256.474503 
L 683.311649 282.677632 
L 698.4219 221.996702 
L 713.532152 212.342918 
L 728.642403 249.578943 
L 743.752655 295.089641 
L 758.862906 216.480254 
L 773.973158 257.853615 
L 789.083409 311.638985 
" style="fill:none;stroke:#ff7f0e;stroke-linecap:round;stroke-width:1.5;"/>
   </g>
   <g id="line2d_13">
    <path clip-path="url(#p413e76c4f3)" d="M 426.437374 288.19408 
L 441.547626 246.820719 
L 456.657877 271.644736 
L 471.768129 317.155433 
L 501.988632 318.534545 
L 517.098883 268.886512 
L 532.209134 318.534545 
L 547.319386 268.886512 
L 562.429637 271.644736 
L 577.539889 256.474503 
L 592.65014 270.265624 
L 607.760392 248.199831 
L 622.870643 252.337167 
L 637.980895 266.128288 
L 653.091146 270.265624 
L 668.201397 271.644736 
L 683.311649 253.716279 
L 698.4219 286.814968 
L 713.532152 267.5074 
L 728.642403 259.232727 
L 743.752655 281.29852 
L 758.862906 271.644736 
L 773.973158 22.025455 
" style="fill:none;stroke:#2ca02c;stroke-linecap:round;stroke-width:1.5;"/>
   </g>
   <g id="line2d_14">
    <path clip-path="url(#p413e76c4f3)" d="M 350.886117 306.122537 
L 365.996368 307.501649 
L 381.10662 304.743425 
L 396.216871 289.573192 
L 411.327123 296.468753 
L 426.437374 306.122537 
L 441.547626 292.331416 
L 456.657877 297.847865 
L 471.768129 301.985201 
L 486.87838 296.468753 
L 501.988632 299.226977 
L 517.098883 292.331416 
L 532.209134 299.226977 
L 547.319386 301.985201 
L 562.429637 307.501649 
L 577.539889 301.985201 
L 592.65014 295.089641 
L 607.760392 301.985201 
L 622.870643 279.919408 
L 637.980895 301.985201 
L 653.091146 286.814968 
L 668.201397 279.919408 
L 683.311649 288.19408 
L 698.4219 278.540296 
L 713.532152 248.199831 
L 728.642403 252.337167 
L 743.752655 226.134038 
L 758.862906 194.414461 
L 773.973158 38.574799 
L 789.083409 292.331416 
" style="fill:none;stroke:#d62728;stroke-linecap:round;stroke-width:1.5;"/>
   </g>
   <g id="line2d_15">
    <path clip-path="url(#p413e76c4f3)" d="M 441.547626 279.919408 
L 456.657877 284.056744 
L 471.768129 250.958055 
L 486.87838 270.265624 
L 501.988632 259.232727 
L 517.098883 259.232727 
L 532.209134 274.40296 
L 547.319386 267.5074 
L 562.429637 271.644736 
L 577.539889 277.161184 
L 592.65014 273.023848 
L 607.760392 248.199831 
L 622.870643 259.232727 
L 637.980895 275.782072 
L 653.091146 263.370063 
L 668.201397 267.5074 
L 683.311649 256.474503 
L 698.4219 275.782072 
L 713.532152 270.265624 
L 728.642403 261.990951 
L 743.752655 248.199831 
L 758.862906 271.644736 
L 773.973158 184.760677 
L 789.083409 317.155433 
" style="fill:none;stroke:#9467bd;stroke-linecap:round;stroke-width:1.5;"/>
   </g>
   <g id="line2d_16">
    <path clip-path="url(#p413e76c4f3)" d="M 78.901591 318.534545 
L 214.893854 318.534545 
L 275.33486 318.534545 
L 335.775866 318.534545 
L 426.437374 317.155433 
L 486.87838 317.155433 
L 501.988632 315.776321 
L 517.098883 315.776321 
L 532.209134 317.155433 
L 547.319386 318.534545 
L 562.429637 310.259873 
L 577.539889 317.155433 
L 592.65014 314.397209 
L 607.760392 317.155433 
L 622.870643 317.155433 
L 637.980895 241.304271 
L 653.091146 239.925159 
L 668.201397 212.342918 
L 683.311649 223.375814 
L 698.4219 202.689133 
L 713.532152 190.277125 
L 728.642403 114.425962 
L 743.752655 231.650486 
L 758.862906 217.859366 
L 773.973158 119.94241 
L 789.083409 318.534545 
" style="fill:none;stroke:#8c564b;stroke-linecap:round;stroke-width:1.5;"/>
   </g>
   <g id="line2d_17">
    <path clip-path="url(#p413e76c4f3)" d="M 335.775866 318.534545 
L 350.886117 318.534545 
L 365.996368 318.534545 
L 396.216871 318.534545 
L 426.437374 317.155433 
L 441.547626 318.534545 
L 456.657877 315.776321 
L 471.768129 315.776321 
L 486.87838 318.534545 
L 501.988632 317.155433 
L 517.098883 317.155433 
L 532.209134 284.056744 
L 547.319386 253.716279 
L 562.429637 285.435856 
L 577.539889 256.474503 
L 592.65014 288.19408 
L 607.760392 261.990951 
L 622.870643 266.128288 
L 637.980895 257.853615 
L 653.091146 270.265624 
L 668.201397 233.029598 
L 683.311649 275.782072 
L 698.4219 278.540296 
L 713.532152 281.29852 
L 728.642403 217.859366 
L 743.752655 244.062495 
L 758.862906 228.892262 
L 773.973158 260.611839 
" style="fill:none;stroke:#e377c2;stroke-linecap:round;stroke-width:1.5;"/>
   </g>
   <g id="line2d_18">
    <path clip-path="url(#p413e76c4f3)" d="M 456.657877 318.534545 
L 486.87838 314.397209 
L 501.988632 315.776321 
L 517.098883 318.534545 
L 532.209134 317.155433 
L 547.319386 317.155433 
L 562.429637 317.155433 
L 577.539889 314.397209 
L 592.65014 176.486004 
L 607.760392 252.337167 
L 622.870643 261.990951 
L 637.980895 126.83797 
L 653.091146 245.441607 
L 668.201397 270.265624 
L 683.311649 260.611839 
L 698.4219 263.370063 
L 713.532152 219.238478 
L 728.642403 282.677632 
L 743.752655 275.782072 
L 758.862906 273.023848 
L 773.973158 125.458858 
" style="fill:none;stroke:#7f7f7f;stroke-linecap:round;stroke-width:1.5;"/>
   </g>
   <g id="line2d_19">
    <path clip-path="url(#p413e76c4f3)" d="M 350.886117 314.397209 
L 365.996368 318.534545 
L 396.216871 318.534545 
L 441.547626 314.397209 
L 456.657877 292.331416 
L 471.768129 281.29852 
L 486.87838 277.161184 
L 501.988632 289.573192 
L 532.209134 292.331416 
L 547.319386 288.19408 
L 562.429637 282.677632 
L 577.539889 231.650486 
L 592.65014 197.172685 
L 607.760392 260.611839 
L 622.870643 273.023848 
L 637.980895 253.716279 
L 653.091146 281.29852 
L 668.201397 266.128288 
L 683.311649 264.749175 
L 698.4219 271.644736 
L 713.532152 242.683383 
L 728.642403 230.271374 
L 743.752655 259.232727 
L 758.862906 244.062495 
L 773.973158 175.106892 
L 789.083409 286.814968 
" style="fill:none;stroke:#bcbd22;stroke-linecap:round;stroke-width:1.5;"/>
   </g>
   <g id="line2d_20">
    <path clip-path="url(#p413e76c4f3)" d="M 365.996368 314.397209 
L 381.10662 301.985201 
L 396.216871 285.435856 
L 411.327123 274.40296 
L 426.437374 289.573192 
L 441.547626 299.226977 
L 456.657877 307.501649 
L 471.768129 300.606089 
L 486.87838 307.501649 
L 501.988632 290.952304 
L 517.098883 295.089641 
L 532.209134 290.952304 
L 547.319386 301.985201 
L 562.429637 293.710529 
L 577.539889 288.19408 
L 592.65014 288.19408 
L 607.760392 278.540296 
L 622.870643 244.062495 
L 637.980895 253.716279 
L 653.091146 259.232727 
L 668.201397 239.925159 
L 683.311649 241.304271 
L 698.4219 273.023848 
L 713.532152 228.892262 
L 728.642403 237.166934 
L 743.752655 239.925159 
L 758.862906 224.754926 
L 773.973158 201.310021 
L 789.083409 315.776321 
" style="fill:none;stroke:#17becf;stroke-linecap:round;stroke-width:1.5;"/>
   </g>
   <g id="patch_3">
    <path d="M 43.3925 333.36 
L 43.3925 7.2 
" style="fill:none;stroke:#262626;stroke-linecap:square;stroke-linejoin:miter;stroke-width:1.25;"/>
   </g>
   <g id="patch_4">
    <path d="M 824.5925 333.36 
L 824.5925 7.2 
" style="fill:none;stroke:#262626;stroke-linecap:square;stroke-linejoin:miter;stroke-width:1.25;"/>
   </g>
   <g id="patch_5">
    <path d="M 43.3925 333.36 
L 824.5925 333.36 
" style="fill:none;stroke:#262626;stroke-linecap:square;stroke-linejoin:miter;stroke-width:1.25;"/>
   </g>
   <g id="patch_6">
    <path d="M 43.3925 7.2 
L 824.5925 7.2 
" style="fill:none;stroke:#262626;stroke-linecap:square;stroke-linejoin:miter;stroke-width:1.25;"/>
   </g>
   <g id="legend_1">
    <g id="line2d_21">
     <path d="M 57.7925 27.4525 
L 89.7925 27.4525 
" style="fill:none;stroke:#1f77b4;stroke-linecap:round;stroke-width:1.5;"/>
    </g>
    <g id="line2d_22"/>
    <g id="text_11">
     <!-- 20178 -->
     <g style="fill:#262626;" transform="translate(102.5925 33.0525)scale(0.16 -0.16)">
      <use xlink:href="#ArialMT-50"/>
      <use x="55.615234" xlink:href="#ArialMT-48"/>
      <use x="111.230469" xlink:href="#ArialMT-49"/>
      <use x="166.845703" xlink:href="#ArialMT-55"/>
      <use x="222.460938" xlink:href="#ArialMT-56"/>
     </g>
    </g>
    <g id="line2d_23">
     <path d="M 57.7925 50.085 
L 89.7925 50.085 
" style="fill:none;stroke:#ff7f0e;stroke-linecap:round;stroke-width:1.5;"/>
    </g>
    <g id="line2d_24"/>
    <g id="text_12">
     <!-- 21212 -->
     <g style="fill:#262626;" transform="translate(102.5925 55.685)scale(0.16 -0.16)">
      <use xlink:href="#ArialMT-50"/>
      <use x="55.615234" xlink:href="#ArialMT-49"/>
      <use x="111.230469" xlink:href="#ArialMT-50"/>
      <use x="166.845703" xlink:href="#ArialMT-49"/>
      <use x="222.460938" xlink:href="#ArialMT-50"/>
     </g>
    </g>
    <g id="line2d_25">
     <path d="M 57.7925 72.7175 
L 89.7925 72.7175 
" style="fill:none;stroke:#2ca02c;stroke-linecap:round;stroke-width:1.5;"/>
    </g>
    <g id="line2d_26"/>
    <g id="text_13">
     <!-- 21220 -->
     <g style="fill:#262626;" transform="translate(102.5925 78.3175)scale(0.16 -0.16)">
      <use xlink:href="#ArialMT-50"/>
      <use x="55.615234" xlink:href="#ArialMT-49"/>
      <use x="111.230469" xlink:href="#ArialMT-50"/>
      <use x="166.845703" xlink:href="#ArialMT-50"/>
      <use x="222.460938" xlink:href="#ArialMT-48"/>
     </g>
    </g>
    <g id="line2d_27">
     <path d="M 57.7925 95.35 
L 89.7925 95.35 
" style="fill:none;stroke:#d62728;stroke-linecap:round;stroke-width:1.5;"/>
    </g>
    <g id="line2d_28"/>
    <g id="text_14">
     <!-- 21235 -->
     <g style="fill:#262626;" transform="translate(102.5925 100.95)scale(0.16 -0.16)">
      <defs>
       <path d="M 4.203125 18.890625 
L 12.984375 20.0625 
Q 14.5 12.59375 18.140625 9.296875 
Q 21.78125 6 27 6 
Q 33.203125 6 37.46875 10.296875 
Q 41.75 14.59375 41.75 20.953125 
Q 41.75 27 37.796875 30.921875 
Q 33.84375 34.859375 27.734375 34.859375 
Q 25.25 34.859375 21.53125 33.890625 
L 22.515625 41.609375 
Q 23.390625 41.5 23.921875 41.5 
Q 29.546875 41.5 34.03125 44.421875 
Q 38.53125 47.359375 38.53125 53.46875 
Q 38.53125 58.296875 35.25 61.46875 
Q 31.984375 64.65625 26.8125 64.65625 
Q 21.6875 64.65625 18.265625 61.421875 
Q 14.84375 58.203125 13.875 51.765625 
L 5.078125 53.328125 
Q 6.6875 62.15625 12.390625 67.015625 
Q 18.109375 71.875 26.609375 71.875 
Q 32.46875 71.875 37.390625 69.359375 
Q 42.328125 66.84375 44.9375 62.5 
Q 47.5625 58.15625 47.5625 53.265625 
Q 47.5625 48.640625 45.0625 44.828125 
Q 42.578125 41.015625 37.703125 38.765625 
Q 44.046875 37.3125 47.5625 32.6875 
Q 51.078125 28.078125 51.078125 21.140625 
Q 51.078125 11.765625 44.234375 5.25 
Q 37.40625 -1.265625 26.953125 -1.265625 
Q 17.53125 -1.265625 11.296875 4.34375 
Q 5.078125 9.96875 4.203125 18.890625 
z
" id="ArialMT-51"/>
      </defs>
      <use xlink:href="#ArialMT-50"/>
      <use x="55.615234" xlink:href="#ArialMT-49"/>
      <use x="111.230469" xlink:href="#ArialMT-50"/>
      <use x="166.845703" xlink:href="#ArialMT-51"/>
      <use x="222.460938" xlink:href="#ArialMT-53"/>
     </g>
    </g>
    <g id="line2d_29">
     <path d="M 57.7925 117.9825 
L 89.7925 117.9825 
" style="fill:none;stroke:#9467bd;stroke-linecap:round;stroke-width:1.5;"/>
    </g>
    <g id="line2d_30"/>
    <g id="text_15">
     <!-- 21239 -->
     <g style="fill:#262626;" transform="translate(102.5925 123.5825)scale(0.16 -0.16)">
      <use xlink:href="#ArialMT-50"/>
      <use x="55.615234" xlink:href="#ArialMT-49"/>
      <use x="111.230469" xlink:href="#ArialMT-50"/>
      <use x="166.845703" xlink:href="#ArialMT-51"/>
      <use x="222.460938" xlink:href="#ArialMT-57"/>
     </g>
    </g>
    <g id="line2d_31">
     <path d="M 57.7925 140.615 
L 89.7925 140.615 
" style="fill:none;stroke:#8c564b;stroke-linecap:round;stroke-width:1.5;"/>
    </g>
    <g id="line2d_32"/>
    <g id="text_16">
     <!-- 21246 -->
     <g style="fill:#262626;" transform="translate(102.5925 146.215)scale(0.16 -0.16)">
      <defs>
       <path d="M 32.328125 0 
L 32.328125 17.140625 
L 1.265625 17.140625 
L 1.265625 25.203125 
L 33.9375 71.578125 
L 41.109375 71.578125 
L 41.109375 25.203125 
L 50.78125 25.203125 
L 50.78125 17.140625 
L 41.109375 17.140625 
L 41.109375 0 
z
M 32.328125 25.203125 
L 32.328125 57.46875 
L 9.90625 25.203125 
z
" id="ArialMT-52"/>
       <path d="M 49.75 54.046875 
L 41.015625 53.375 
Q 39.84375 58.546875 37.703125 60.890625 
Q 34.125 64.65625 28.90625 64.65625 
Q 24.703125 64.65625 21.53125 62.3125 
Q 17.390625 59.28125 14.984375 53.46875 
Q 12.59375 47.65625 12.5 36.921875 
Q 15.671875 41.75 20.265625 44.09375 
Q 24.859375 46.4375 29.890625 46.4375 
Q 38.671875 46.4375 44.84375 39.96875 
Q 51.03125 33.5 51.03125 23.25 
Q 51.03125 16.5 48.125 10.71875 
Q 45.21875 4.9375 40.140625 1.859375 
Q 35.0625 -1.21875 28.609375 -1.21875 
Q 17.625 -1.21875 10.6875 6.859375 
Q 3.765625 14.9375 3.765625 33.5 
Q 3.765625 54.25 11.421875 63.671875 
Q 18.109375 71.875 29.4375 71.875 
Q 37.890625 71.875 43.28125 67.140625 
Q 48.6875 62.40625 49.75 54.046875 
z
M 13.875 23.1875 
Q 13.875 18.65625 15.796875 14.5 
Q 17.71875 10.359375 21.1875 8.171875 
Q 24.65625 6 28.46875 6 
Q 34.03125 6 38.03125 10.484375 
Q 42.046875 14.984375 42.046875 22.703125 
Q 42.046875 30.125 38.078125 34.390625 
Q 34.125 38.671875 28.125 38.671875 
Q 22.171875 38.671875 18.015625 34.390625 
Q 13.875 30.125 13.875 23.1875 
z
" id="ArialMT-54"/>
      </defs>
      <use xlink:href="#ArialMT-50"/>
      <use x="55.615234" xlink:href="#ArialMT-49"/>
      <use x="111.230469" xlink:href="#ArialMT-50"/>
      <use x="166.845703" xlink:href="#ArialMT-52"/>
      <use x="222.460938" xlink:href="#ArialMT-54"/>
     </g>
    </g>
    <g id="line2d_33">
     <path d="M 57.7925 163.2475 
L 89.7925 163.2475 
" style="fill:none;stroke:#e377c2;stroke-linecap:round;stroke-width:1.5;"/>
    </g>
    <g id="line2d_34"/>
    <g id="text_17">
     <!-- 21258 -->
     <g style="fill:#262626;" transform="translate(102.5925 168.8475)scale(0.16 -0.16)">
      <use xlink:href="#ArialMT-50"/>
      <use x="55.615234" xlink:href="#ArialMT-49"/>
      <use x="111.230469" xlink:href="#ArialMT-50"/>
      <use x="166.845703" xlink:href="#ArialMT-53"/>
      <use x="222.460938" xlink:href="#ArialMT-56"/>
     </g>
    </g>
    <g id="line2d_35">
     <path d="M 57.7925 185.88 
L 89.7925 185.88 
" style="fill:none;stroke:#7f7f7f;stroke-linecap:round;stroke-width:1.5;"/>
    </g>
    <g id="line2d_36"/>
    <g id="text_18">
     <!-- 21349 -->
     <g style="fill:#262626;" transform="translate(102.5925 191.48)scale(0.16 -0.16)">
      <use xlink:href="#ArialMT-50"/>
      <use x="55.615234" xlink:href="#ArialMT-49"/>
      <use x="111.230469" xlink:href="#ArialMT-51"/>
      <use x="166.845703" xlink:href="#ArialMT-52"/>
      <use x="222.460938" xlink:href="#ArialMT-57"/>
     </g>
    </g>
    <g id="line2d_37">
     <path d="M 57.7925 208.5125 
L 89.7925 208.5125 
" style="fill:none;stroke:#bcbd22;stroke-linecap:round;stroke-width:1.5;"/>
    </g>
    <g id="line2d_38"/>
    <g id="text_19">
     <!-- 22457 -->
     <g style="fill:#262626;" transform="translate(102.5925 214.1125)scale(0.16 -0.16)">
      <use xlink:href="#ArialMT-50"/>
      <use x="55.615234" xlink:href="#ArialMT-50"/>
      <use x="111.230469" xlink:href="#ArialMT-52"/>
      <use x="166.845703" xlink:href="#ArialMT-53"/>
      <use x="222.460938" xlink:href="#ArialMT-55"/>
     </g>
    </g>
    <g id="line2d_39">
     <path d="M 57.7925 231.145 
L 89.7925 231.145 
" style="fill:none;stroke:#17becf;stroke-linecap:round;stroke-width:1.5;"/>
    </g>
    <g id="line2d_40"/>
    <g id="text_20">
     <!-- 22736 -->
     <g style="fill:#262626;" transform="translate(102.5925 236.745)scale(0.16 -0.16)">
      <use xlink:href="#ArialMT-50"/>
      <use x="55.615234" xlink:href="#ArialMT-50"/>
      <use x="111.230469" xlink:href="#ArialMT-55"/>
      <use x="166.845703" xlink:href="#ArialMT-51"/>
      <use x="222.460938" xlink:href="#ArialMT-54"/>
     </g>
    </g>
   </g>
  </g>
 </g>
 <defs>
  <clipPath id="p413e76c4f3">
   <rect height="326.16" width="781.2" x="43.3925" y="7.2"/>
  </clipPath>
 </defs>
</svg>
