<?xml version="1.0" encoding="utf-8" standalone="no"?>
<!DOCTYPE svg PUBLIC "-//W3C//DTD SVG 1.1//EN"
  "http://www.w3.org/Graphics/SVG/1.1/DTD/svg11.dtd">
<svg height="337.027pt" version="1.1" viewBox="0 0 1373.76975 337.027" width="1373.76975pt" xmlns="http://www.w3.org/2000/svg" xmlns:xlink="http://www.w3.org/1999/xlink">
 <metadata>
  <rdf:RDF xmlns:cc="http://creativecommons.org/ns#" xmlns:dc="http://purl.org/dc/elements/1.1/" xmlns:rdf="http://www.w3.org/1999/02/22-rdf-syntax-ns#">
   <cc:Work>
    <dc:type rdf:resource="http://purl.org/dc/dcmitype/StillImage"/>
    <dc:date>2021-08-18T17:23:44.243658</dc:date>
    <dc:format>image/svg+xml</dc:format>
    <dc:creator>
     <cc:Agent>
      <dc:title>Matplotlib v3.4.2, https://matplotlib.org/</dc:title>
     </cc:Agent>
    </dc:creator>
   </cc:Work>
  </rdf:RDF>
 </metadata>
 <defs>
  <style type="text/css">*{stroke-linecap:butt;stroke-linejoin:round;}</style>
 </defs>
 <g id="figure_1">
  <g id="patch_1">
   <path d="M -0 337.027 
L 1373.76975 337.027 
L 1373.76975 0 
L -0 0 
z
" style="fill:#ffffff;"/>
  </g>
  <g id="axes_1">
   <g id="patch_2">
    <path d="M 113.76975 298.8 
L 1366.56975 298.8 
L 1366.56975 7.2 
L 113.76975 7.2 
z
" style="fill:#ffffff;"/>
   </g>
   <g id="matplotlib.axis_1">
    <g id="text_1">
     <!-- Community -->
     <g style="fill:#262626;" transform="translate(667.3575 323.7655)scale(0.288 -0.288)">
      <defs>
       <path d="M 3763 1606 
L 4369 1453 
Q 4178 706 3683 314 
Q 3188 -78 2472 -78 
Q 1731 -78 1267 223 
Q 803 525 561 1097 
Q 319 1669 319 2325 
Q 319 3041 592 3573 
Q 866 4106 1370 4382 
Q 1875 4659 2481 4659 
Q 3169 4659 3637 4309 
Q 4106 3959 4291 3325 
L 3694 3184 
Q 3534 3684 3231 3912 
Q 2928 4141 2469 4141 
Q 1941 4141 1586 3887 
Q 1231 3634 1087 3207 
Q 944 2781 944 2328 
Q 944 1744 1114 1308 
Q 1284 872 1643 656 
Q 2003 441 2422 441 
Q 2931 441 3284 734 
Q 3638 1028 3763 1606 
z
" id="ArialMT-43" transform="scale(0.015625)"/>
       <path d="M 213 1659 
Q 213 2581 725 3025 
Q 1153 3394 1769 3394 
Q 2453 3394 2887 2945 
Q 3322 2497 3322 1706 
Q 3322 1066 3130 698 
Q 2938 331 2570 128 
Q 2203 -75 1769 -75 
Q 1072 -75 642 372 
Q 213 819 213 1659 
z
M 791 1659 
Q 791 1022 1069 705 
Q 1347 388 1769 388 
Q 2188 388 2466 706 
Q 2744 1025 2744 1678 
Q 2744 2294 2464 2611 
Q 2184 2928 1769 2928 
Q 1347 2928 1069 2612 
Q 791 2297 791 1659 
z
" id="ArialMT-6f" transform="scale(0.015625)"/>
       <path d="M 422 0 
L 422 3319 
L 925 3319 
L 925 2853 
Q 1081 3097 1340 3245 
Q 1600 3394 1931 3394 
Q 2300 3394 2536 3241 
Q 2772 3088 2869 2813 
Q 3263 3394 3894 3394 
Q 4388 3394 4653 3120 
Q 4919 2847 4919 2278 
L 4919 0 
L 4359 0 
L 4359 2091 
Q 4359 2428 4304 2576 
Q 4250 2725 4106 2815 
Q 3963 2906 3769 2906 
Q 3419 2906 3187 2673 
Q 2956 2441 2956 1928 
L 2956 0 
L 2394 0 
L 2394 2156 
Q 2394 2531 2256 2718 
Q 2119 2906 1806 2906 
Q 1569 2906 1367 2781 
Q 1166 2656 1075 2415 
Q 984 2175 984 1722 
L 984 0 
L 422 0 
z
" id="ArialMT-6d" transform="scale(0.015625)"/>
       <path d="M 2597 0 
L 2597 488 
Q 2209 -75 1544 -75 
Q 1250 -75 995 37 
Q 741 150 617 320 
Q 494 491 444 738 
Q 409 903 409 1263 
L 409 3319 
L 972 3319 
L 972 1478 
Q 972 1038 1006 884 
Q 1059 663 1231 536 
Q 1403 409 1656 409 
Q 1909 409 2131 539 
Q 2353 669 2445 892 
Q 2538 1116 2538 1541 
L 2538 3319 
L 3100 3319 
L 3100 0 
L 2597 0 
z
" id="ArialMT-75" transform="scale(0.015625)"/>
       <path d="M 422 0 
L 422 3319 
L 928 3319 
L 928 2847 
Q 1294 3394 1984 3394 
Q 2284 3394 2536 3286 
Q 2788 3178 2913 3003 
Q 3038 2828 3088 2588 
Q 3119 2431 3119 2041 
L 3119 0 
L 2556 0 
L 2556 2019 
Q 2556 2363 2490 2533 
Q 2425 2703 2258 2804 
Q 2091 2906 1866 2906 
Q 1506 2906 1245 2678 
Q 984 2450 984 1813 
L 984 0 
L 422 0 
z
" id="ArialMT-6e" transform="scale(0.015625)"/>
       <path d="M 425 3934 
L 425 4581 
L 988 4581 
L 988 3934 
L 425 3934 
z
M 425 0 
L 425 3319 
L 988 3319 
L 988 0 
L 425 0 
z
" id="ArialMT-69" transform="scale(0.015625)"/>
       <path d="M 1650 503 
L 1731 6 
Q 1494 -44 1306 -44 
Q 1000 -44 831 53 
Q 663 150 594 308 
Q 525 466 525 972 
L 525 2881 
L 113 2881 
L 113 3319 
L 525 3319 
L 525 4141 
L 1084 4478 
L 1084 3319 
L 1650 3319 
L 1650 2881 
L 1084 2881 
L 1084 941 
Q 1084 700 1114 631 
Q 1144 563 1211 522 
Q 1278 481 1403 481 
Q 1497 481 1650 503 
z
" id="ArialMT-74" transform="scale(0.015625)"/>
       <path d="M 397 -1278 
L 334 -750 
Q 519 -800 656 -800 
Q 844 -800 956 -737 
Q 1069 -675 1141 -563 
Q 1194 -478 1313 -144 
Q 1328 -97 1363 -6 
L 103 3319 
L 709 3319 
L 1400 1397 
Q 1534 1031 1641 628 
Q 1738 1016 1872 1384 
L 2581 3319 
L 3144 3319 
L 1881 -56 
Q 1678 -603 1566 -809 
Q 1416 -1088 1222 -1217 
Q 1028 -1347 759 -1347 
Q 597 -1347 397 -1278 
z
" id="ArialMT-79" transform="scale(0.015625)"/>
      </defs>
      <use xlink:href="#ArialMT-43"/>
      <use x="72.216797" xlink:href="#ArialMT-6f"/>
      <use x="127.832031" xlink:href="#ArialMT-6d"/>
      <use x="211.132812" xlink:href="#ArialMT-6d"/>
      <use x="294.433594" xlink:href="#ArialMT-75"/>
      <use x="350.048828" xlink:href="#ArialMT-6e"/>
      <use x="405.664062" xlink:href="#ArialMT-69"/>
      <use x="427.880859" xlink:href="#ArialMT-74"/>
      <use x="455.664062" xlink:href="#ArialMT-79"/>
     </g>
    </g>
   </g>
   <g id="matplotlib.axis_2">
    <g id="ytick_1">
     <g id="line2d_1">
      <defs>
       <path d="M 0 0 
L -6 0 
" id="m262bd1872d" style="stroke:#262626;stroke-width:0.8;"/>
      </defs>
      <g>
       <use style="fill:#262626;stroke:#262626;stroke-width:0.8;" x="113.76975" xlink:href="#m262bd1872d" y="298.8"/>
      </g>
     </g>
     <g id="text_2">
      <!-- 0 -->
      <g style="fill:#262626;" transform="translate(90.9235 307.389375)scale(0.24 -0.24)">
       <defs>
        <path d="M 266 2259 
Q 266 3072 433 3567 
Q 600 4063 929 4331 
Q 1259 4600 1759 4600 
Q 2128 4600 2406 4451 
Q 2684 4303 2865 4023 
Q 3047 3744 3150 3342 
Q 3253 2941 3253 2259 
Q 3253 1453 3087 958 
Q 2922 463 2592 192 
Q 2263 -78 1759 -78 
Q 1097 -78 719 397 
Q 266 969 266 2259 
z
M 844 2259 
Q 844 1131 1108 757 
Q 1372 384 1759 384 
Q 2147 384 2411 759 
Q 2675 1134 2675 2259 
Q 2675 3391 2411 3762 
Q 2147 4134 1753 4134 
Q 1366 4134 1134 3806 
Q 844 3388 844 2259 
z
" id="ArialMT-30" transform="scale(0.015625)"/>
       </defs>
       <use xlink:href="#ArialMT-30"/>
      </g>
     </g>
    </g>
    <g id="ytick_2">
     <g id="line2d_2">
      <g>
       <use style="fill:#262626;stroke:#262626;stroke-width:0.8;" x="113.76975" xlink:href="#m262bd1872d" y="205.544699"/>
      </g>
     </g>
     <g id="text_3">
      <!-- 5000 -->
      <g style="fill:#262626;" transform="translate(50.88475 214.134074)scale(0.24 -0.24)">
       <defs>
        <path d="M 266 1200 
L 856 1250 
Q 922 819 1161 601 
Q 1400 384 1738 384 
Q 2144 384 2425 690 
Q 2706 997 2706 1503 
Q 2706 1984 2436 2262 
Q 2166 2541 1728 2541 
Q 1456 2541 1237 2417 
Q 1019 2294 894 2097 
L 366 2166 
L 809 4519 
L 3088 4519 
L 3088 3981 
L 1259 3981 
L 1013 2750 
Q 1425 3038 1878 3038 
Q 2478 3038 2890 2622 
Q 3303 2206 3303 1553 
Q 3303 931 2941 478 
Q 2500 -78 1738 -78 
Q 1113 -78 717 272 
Q 322 622 266 1200 
z
" id="ArialMT-35" transform="scale(0.015625)"/>
       </defs>
       <use xlink:href="#ArialMT-35"/>
       <use x="55.615234" xlink:href="#ArialMT-30"/>
       <use x="111.230469" xlink:href="#ArialMT-30"/>
       <use x="166.845703" xlink:href="#ArialMT-30"/>
      </g>
     </g>
    </g>
    <g id="ytick_3">
     <g id="line2d_3">
      <g>
       <use style="fill:#262626;stroke:#262626;stroke-width:0.8;" x="113.76975" xlink:href="#m262bd1872d" y="112.289398"/>
      </g>
     </g>
     <g id="text_4">
      <!-- 10000 -->
      <g style="fill:#262626;" transform="translate(37.5385 120.878773)scale(0.24 -0.24)">
       <defs>
        <path d="M 2384 0 
L 1822 0 
L 1822 3584 
Q 1619 3391 1289 3197 
Q 959 3003 697 2906 
L 697 3450 
Q 1169 3672 1522 3987 
Q 1875 4303 2022 4600 
L 2384 4600 
L 2384 0 
z
" id="ArialMT-31" transform="scale(0.015625)"/>
       </defs>
       <use xlink:href="#ArialMT-31"/>
       <use x="55.615234" xlink:href="#ArialMT-30"/>
       <use x="111.230469" xlink:href="#ArialMT-30"/>
       <use x="166.845703" xlink:href="#ArialMT-30"/>
       <use x="222.460938" xlink:href="#ArialMT-30"/>
      </g>
     </g>
    </g>
    <g id="ytick_4">
     <g id="line2d_4">
      <g>
       <use style="fill:#262626;stroke:#262626;stroke-width:0.8;" x="113.76975" xlink:href="#m262bd1872d" y="19.034098"/>
      </g>
     </g>
     <g id="text_5">
      <!-- 15000 -->
      <g style="fill:#262626;" transform="translate(37.5385 27.623473)scale(0.24 -0.24)">
       <use xlink:href="#ArialMT-31"/>
       <use x="55.615234" xlink:href="#ArialMT-35"/>
       <use x="111.230469" xlink:href="#ArialMT-30"/>
       <use x="166.845703" xlink:href="#ArialMT-30"/>
       <use x="222.460938" xlink:href="#ArialMT-30"/>
      </g>
     </g>
    </g>
    <g id="text_6">
     <!-- No. of Nodes -->
     <g style="fill:#262626;" transform="translate(27.8145 237.03975)rotate(-90)scale(0.288 -0.288)">
      <defs>
       <path d="M 488 0 
L 488 4581 
L 1109 4581 
L 3516 984 
L 3516 4581 
L 4097 4581 
L 4097 0 
L 3475 0 
L 1069 3600 
L 1069 0 
L 488 0 
z
" id="ArialMT-4e" transform="scale(0.015625)"/>
       <path d="M 581 0 
L 581 641 
L 1222 641 
L 1222 0 
L 581 0 
z
" id="ArialMT-2e" transform="scale(0.015625)"/>
       <path id="ArialMT-20" transform="scale(0.015625)"/>
       <path d="M 556 0 
L 556 2881 
L 59 2881 
L 59 3319 
L 556 3319 
L 556 3672 
Q 556 4006 616 4169 
Q 697 4388 901 4523 
Q 1106 4659 1475 4659 
Q 1713 4659 2000 4603 
L 1916 4113 
Q 1741 4144 1584 4144 
Q 1328 4144 1222 4034 
Q 1116 3925 1116 3625 
L 1116 3319 
L 1763 3319 
L 1763 2881 
L 1116 2881 
L 1116 0 
L 556 0 
z
" id="ArialMT-66" transform="scale(0.015625)"/>
       <path d="M 2575 0 
L 2575 419 
Q 2259 -75 1647 -75 
Q 1250 -75 917 144 
Q 584 363 401 755 
Q 219 1147 219 1656 
Q 219 2153 384 2558 
Q 550 2963 881 3178 
Q 1213 3394 1622 3394 
Q 1922 3394 2156 3267 
Q 2391 3141 2538 2938 
L 2538 4581 
L 3097 4581 
L 3097 0 
L 2575 0 
z
M 797 1656 
Q 797 1019 1065 703 
Q 1334 388 1700 388 
Q 2069 388 2326 689 
Q 2584 991 2584 1609 
Q 2584 2291 2321 2609 
Q 2059 2928 1675 2928 
Q 1300 2928 1048 2622 
Q 797 2316 797 1656 
z
" id="ArialMT-64" transform="scale(0.015625)"/>
       <path d="M 2694 1069 
L 3275 997 
Q 3138 488 2766 206 
Q 2394 -75 1816 -75 
Q 1088 -75 661 373 
Q 234 822 234 1631 
Q 234 2469 665 2931 
Q 1097 3394 1784 3394 
Q 2450 3394 2872 2941 
Q 3294 2488 3294 1666 
Q 3294 1616 3291 1516 
L 816 1516 
Q 847 969 1125 678 
Q 1403 388 1819 388 
Q 2128 388 2347 550 
Q 2566 713 2694 1069 
z
M 847 1978 
L 2700 1978 
Q 2663 2397 2488 2606 
Q 2219 2931 1791 2931 
Q 1403 2931 1139 2672 
Q 875 2413 847 1978 
z
" id="ArialMT-65" transform="scale(0.015625)"/>
       <path d="M 197 991 
L 753 1078 
Q 800 744 1014 566 
Q 1228 388 1613 388 
Q 2000 388 2187 545 
Q 2375 703 2375 916 
Q 2375 1106 2209 1216 
Q 2094 1291 1634 1406 
Q 1016 1563 777 1677 
Q 538 1791 414 1992 
Q 291 2194 291 2438 
Q 291 2659 392 2848 
Q 494 3038 669 3163 
Q 800 3259 1026 3326 
Q 1253 3394 1513 3394 
Q 1903 3394 2198 3281 
Q 2494 3169 2634 2976 
Q 2775 2784 2828 2463 
L 2278 2388 
Q 2241 2644 2061 2787 
Q 1881 2931 1553 2931 
Q 1166 2931 1000 2803 
Q 834 2675 834 2503 
Q 834 2394 903 2306 
Q 972 2216 1119 2156 
Q 1203 2125 1616 2013 
Q 2213 1853 2448 1751 
Q 2684 1650 2818 1456 
Q 2953 1263 2953 975 
Q 2953 694 2789 445 
Q 2625 197 2315 61 
Q 2006 -75 1616 -75 
Q 969 -75 630 194 
Q 291 463 197 991 
z
" id="ArialMT-73" transform="scale(0.015625)"/>
      </defs>
      <use xlink:href="#ArialMT-4e"/>
      <use x="72.216797" xlink:href="#ArialMT-6f"/>
      <use x="127.832031" xlink:href="#ArialMT-2e"/>
      <use x="155.615234" xlink:href="#ArialMT-20"/>
      <use x="183.398438" xlink:href="#ArialMT-6f"/>
      <use x="239.013672" xlink:href="#ArialMT-66"/>
      <use x="266.796875" xlink:href="#ArialMT-20"/>
      <use x="294.580078" xlink:href="#ArialMT-4e"/>
      <use x="366.796875" xlink:href="#ArialMT-6f"/>
      <use x="422.412109" xlink:href="#ArialMT-64"/>
      <use x="478.027344" xlink:href="#ArialMT-65"/>
      <use x="533.642578" xlink:href="#ArialMT-73"/>
     </g>
    </g>
   </g>
   <g id="patch_3">
    <path clip-path="url(#ped838e808d)" d="M 116.90175 298.8 
L 123.16575 298.8 
L 123.16575 21.085714 
L 116.90175 21.085714 
z
" style="fill:#a9a9a9;"/>
   </g>
   <g id="patch_4">
    <path clip-path="url(#ped838e808d)" d="M 129.42975 298.8 
L 135.69375 298.8 
L 135.69375 33.264857 
L 129.42975 33.264857 
z
" style="fill:#a9a9a9;"/>
   </g>
   <g id="patch_5">
    <path clip-path="url(#ped838e808d)" d="M 141.95775 298.8 
L 148.22175 298.8 
L 148.22175 56.634635 
L 141.95775 56.634635 
z
" style="fill:#a9a9a9;"/>
   </g>
   <g id="patch_6">
    <path clip-path="url(#ped838e808d)" d="M 154.48575 298.8 
L 160.74975 298.8 
L 160.74975 59.879919 
L 154.48575 59.879919 
z
" style="fill:#a9a9a9;"/>
   </g>
   <g id="patch_7">
    <path clip-path="url(#ped838e808d)" d="M 167.01375 298.8 
L 173.27775 298.8 
L 173.27775 72.115015 
L 167.01375 72.115015 
z
" style="fill:#a9a9a9;"/>
   </g>
   <g id="patch_8">
    <path clip-path="url(#ped838e808d)" d="M 179.54175 298.8 
L 185.80575 298.8 
L 185.80575 92.127602 
L 179.54175 92.127602 
z
" style="fill:#a9a9a9;"/>
   </g>
   <g id="patch_9">
    <path clip-path="url(#ped838e808d)" d="M 192.06975 298.8 
L 198.33375 298.8 
L 198.33375 93.824849 
L 192.06975 93.824849 
z
" style="fill:#a9a9a9;"/>
   </g>
   <g id="patch_10">
    <path clip-path="url(#ped838e808d)" d="M 204.59775 298.8 
L 210.86175 298.8 
L 210.86175 103.448796 
L 204.59775 103.448796 
z
" style="fill:#a9a9a9;"/>
   </g>
   <g id="patch_11">
    <path clip-path="url(#ped838e808d)" d="M 217.12575 298.8 
L 223.38975 298.8 
L 223.38975 125.15863 
L 217.12575 125.15863 
z
" style="fill:#a9a9a9;"/>
   </g>
   <g id="patch_12">
    <path clip-path="url(#ped838e808d)" d="M 229.65375 298.8 
L 235.91775 298.8 
L 235.91775 131.742454 
L 229.65375 131.742454 
z
" style="fill:#a9a9a9;"/>
   </g>
   <g id="patch_13">
    <path clip-path="url(#ped838e808d)" d="M 242.18175 298.8 
L 248.44575 298.8 
L 248.44575 144.350571 
L 242.18175 144.350571 
z
" style="fill:#a9a9a9;"/>
   </g>
   <g id="patch_14">
    <path clip-path="url(#ped838e808d)" d="M 254.70975 298.8 
L 260.97375 298.8 
L 260.97375 155.224139 
L 254.70975 155.224139 
z
" style="fill:#a9a9a9;"/>
   </g>
   <g id="patch_15">
    <path clip-path="url(#ped838e808d)" d="M 267.23775 298.8 
L 273.50175 298.8 
L 273.50175 156.156692 
L 267.23775 156.156692 
z
" style="fill:#a9a9a9;"/>
   </g>
   <g id="patch_16">
    <path clip-path="url(#ped838e808d)" d="M 279.76575 298.8 
L 286.02975 298.8 
L 286.02975 157.630126 
L 279.76575 157.630126 
z
" style="fill:#a9a9a9;"/>
   </g>
   <g id="patch_17">
    <path clip-path="url(#ped838e808d)" d="M 292.29375 298.8 
L 298.55775 298.8 
L 298.55775 159.756347 
L 292.29375 159.756347 
z
" style="fill:#a9a9a9;"/>
   </g>
   <g id="patch_18">
    <path clip-path="url(#ped838e808d)" d="M 304.82175 298.8 
L 311.08575 298.8 
L 311.08575 162.348844 
L 304.82175 162.348844 
z
" style="fill:#a9a9a9;"/>
   </g>
   <g id="patch_19">
    <path clip-path="url(#ped838e808d)" d="M 317.34975 298.8 
L 323.61375 298.8 
L 323.61375 166.787796 
L 317.34975 166.787796 
z
" style="fill:#a9a9a9;"/>
   </g>
   <g id="patch_20">
    <path clip-path="url(#ped838e808d)" d="M 329.87775 298.8 
L 336.14175 298.8 
L 336.14175 167.888209 
L 329.87775 167.888209 
z
" style="fill:#a9a9a9;"/>
   </g>
   <g id="patch_21">
    <path clip-path="url(#ped838e808d)" d="M 342.40575 298.8 
L 348.66975 298.8 
L 348.66975 173.390272 
L 342.40575 173.390272 
z
" style="fill:#a9a9a9;"/>
   </g>
   <g id="patch_22">
    <path clip-path="url(#ped838e808d)" d="M 354.93375 298.8 
L 361.19775 298.8 
L 361.19775 176.318488 
L 354.93375 176.318488 
z
" style="fill:#a9a9a9;"/>
   </g>
   <g id="patch_23">
    <path clip-path="url(#ped838e808d)" d="M 367.46175 298.8 
L 373.72575 298.8 
L 373.72575 176.822067 
L 367.46175 176.822067 
z
" style="fill:#a9a9a9;"/>
   </g>
   <g id="patch_24">
    <path clip-path="url(#ped838e808d)" d="M 379.98975 298.8 
L 386.25375 298.8 
L 386.25375 198.737062 
L 379.98975 198.737062 
z
" style="fill:#a9a9a9;"/>
   </g>
   <g id="patch_25">
    <path clip-path="url(#ped838e808d)" d="M 392.51775 298.8 
L 398.78175 298.8 
L 398.78175 199.035479 
L 392.51775 199.035479 
z
" style="fill:#a9a9a9;"/>
   </g>
   <g id="patch_26">
    <path clip-path="url(#ped838e808d)" d="M 405.04575 298.8 
L 411.30975 298.8 
L 411.30975 201.199002 
L 405.04575 201.199002 
z
" style="fill:#a9a9a9;"/>
   </g>
   <g id="patch_27">
    <path clip-path="url(#ped838e808d)" d="M 417.57375 298.8 
L 423.83775 298.8 
L 423.83775 203.698244 
L 417.57375 203.698244 
z
" style="fill:#a9a9a9;"/>
   </g>
   <g id="patch_28">
    <path clip-path="url(#ped838e808d)" d="M 430.10175 298.8 
L 436.36575 298.8 
L 436.36575 204.201823 
L 430.10175 204.201823 
z
" style="fill:#a9a9a9;"/>
   </g>
   <g id="patch_29">
    <path clip-path="url(#ped838e808d)" d="M 442.62975 298.8 
L 448.89375 298.8 
L 448.89375 204.425636 
L 442.62975 204.425636 
z
" style="fill:#a9a9a9;"/>
   </g>
   <g id="patch_30">
    <path clip-path="url(#ped838e808d)" d="M 455.15775 298.8 
L 461.42175 298.8 
L 461.42175 205.190329 
L 455.15775 205.190329 
z
" style="fill:#a9a9a9;"/>
   </g>
   <g id="patch_31">
    <path clip-path="url(#ped838e808d)" d="M 467.68575 298.8 
L 473.94975 298.8 
L 473.94975 209.946349 
L 467.68575 209.946349 
z
" style="fill:#a9a9a9;"/>
   </g>
   <g id="patch_32">
    <path clip-path="url(#ped838e808d)" d="M 480.21375 298.8 
L 486.47775 298.8 
L 486.47775 210.095558 
L 480.21375 210.095558 
z
" style="fill:#a9a9a9;"/>
   </g>
   <g id="patch_33">
    <path clip-path="url(#ped838e808d)" d="M 492.74175 298.8 
L 499.00575 298.8 
L 499.00575 214.851578 
L 492.74175 214.851578 
z
" style="fill:#a9a9a9;"/>
   </g>
   <g id="patch_34">
    <path clip-path="url(#ped838e808d)" d="M 505.26975 298.8 
L 511.53375 298.8 
L 511.53375 216.11985 
L 505.26975 216.11985 
z
" style="fill:#a9a9a9;"/>
   </g>
   <g id="patch_35">
    <path clip-path="url(#ped838e808d)" d="M 517.79775 298.8 
L 524.06175 298.8 
L 524.06175 217.220263 
L 517.79775 217.220263 
z
" style="fill:#a9a9a9;"/>
   </g>
   <g id="patch_36">
    <path clip-path="url(#ped838e808d)" d="M 530.32575 298.8 
L 536.58975 298.8 
L 536.58975 219.10402 
L 530.32575 219.10402 
z
" style="fill:#a9a9a9;"/>
   </g>
   <g id="patch_37">
    <path clip-path="url(#ped838e808d)" d="M 542.85375 298.8 
L 549.11775 298.8 
L 549.11775 219.253228 
L 542.85375 219.253228 
z
" style="fill:#a9a9a9;"/>
   </g>
   <g id="patch_38">
    <path clip-path="url(#ped838e808d)" d="M 555.38175 298.8 
L 561.64575 298.8 
L 561.64575 219.700854 
L 555.38175 219.700854 
z
" style="fill:#a9a9a9;"/>
   </g>
   <g id="patch_39">
    <path clip-path="url(#ped838e808d)" d="M 567.90975 298.8 
L 574.17375 298.8 
L 574.17375 226.67635 
L 567.90975 226.67635 
z
" style="fill:#a9a9a9;"/>
   </g>
   <g id="patch_40">
    <path clip-path="url(#ped838e808d)" d="M 580.43775 298.8 
L 586.70175 298.8 
L 586.70175 226.788257 
L 580.43775 226.788257 
z
" style="fill:#a9a9a9;"/>
   </g>
   <g id="patch_41">
    <path clip-path="url(#ped838e808d)" d="M 592.96575 298.8 
L 599.22975 298.8 
L 599.22975 228.056529 
L 592.96575 228.056529 
z
" style="fill:#a9a9a9;"/>
   </g>
   <g id="patch_42">
    <path clip-path="url(#ped838e808d)" d="M 605.49375 298.8 
L 611.75775 298.8 
L 611.75775 228.522805 
L 605.49375 228.522805 
z
" style="fill:#a9a9a9;"/>
   </g>
   <g id="patch_43">
    <path clip-path="url(#ped838e808d)" d="M 618.02175 298.8 
L 624.28575 298.8 
L 624.28575 229.175592 
L 618.02175 229.175592 
z
" style="fill:#a9a9a9;"/>
   </g>
   <g id="patch_44">
    <path clip-path="url(#ped838e808d)" d="M 630.54975 298.8 
L 636.81375 298.8 
L 636.81375 229.474009 
L 630.54975 229.474009 
z
" style="fill:#a9a9a9;"/>
   </g>
   <g id="patch_45">
    <path clip-path="url(#ped838e808d)" d="M 643.07775 298.8 
L 649.34175 298.8 
L 649.34175 230.760933 
L 643.07775 230.760933 
z
" style="fill:#a9a9a9;"/>
   </g>
   <g id="patch_46">
    <path clip-path="url(#ped838e808d)" d="M 655.60575 298.8 
L 661.86975 298.8 
L 661.86975 233.651847 
L 655.60575 233.651847 
z
" style="fill:#a9a9a9;"/>
   </g>
   <g id="patch_47">
    <path clip-path="url(#ped838e808d)" d="M 668.13375 298.8 
L 674.39775 298.8 
L 674.39775 234.341936 
L 668.13375 234.341936 
z
" style="fill:#a9a9a9;"/>
   </g>
   <g id="patch_48">
    <path clip-path="url(#ped838e808d)" d="M 680.66175 298.8 
L 686.92575 298.8 
L 686.92575 236.095136 
L 680.66175 236.095136 
z
" style="fill:#a9a9a9;"/>
   </g>
   <g id="patch_49">
    <path clip-path="url(#ped838e808d)" d="M 693.18975 298.8 
L 699.45375 298.8 
L 699.45375 237.848335 
L 693.18975 237.848335 
z
" style="fill:#a9a9a9;"/>
   </g>
   <g id="patch_50">
    <path clip-path="url(#ped838e808d)" d="M 705.71775 298.8 
L 711.98175 298.8 
L 711.98175 239.750744 
L 705.71775 239.750744 
z
" style="fill:#a9a9a9;"/>
   </g>
   <g id="patch_51">
    <path clip-path="url(#ped838e808d)" d="M 718.24575 298.8 
L 724.50975 298.8 
L 724.50975 241.28013 
L 718.24575 241.28013 
z
" style="fill:#a9a9a9;"/>
   </g>
   <g id="patch_52">
    <path clip-path="url(#ped838e808d)" d="M 730.77375 298.8 
L 737.03775 298.8 
L 737.03775 241.578547 
L 730.77375 241.578547 
z
" style="fill:#a9a9a9;"/>
   </g>
   <g id="patch_53">
    <path clip-path="url(#ped838e808d)" d="M 743.30175 298.8 
L 749.56575 298.8 
L 749.56575 241.876964 
L 743.30175 241.876964 
z
" style="fill:#a9a9a9;"/>
   </g>
   <g id="patch_54">
    <path clip-path="url(#ped838e808d)" d="M 755.82975 298.8 
L 762.09375 298.8 
L 762.09375 244.115092 
L 755.82975 244.115092 
z
" style="fill:#a9a9a9;"/>
   </g>
   <g id="patch_55">
    <path clip-path="url(#ped838e808d)" d="M 768.35775 298.8 
L 774.62175 298.8 
L 774.62175 248.162372 
L 768.35775 248.162372 
z
" style="fill:#a9a9a9;"/>
   </g>
   <g id="patch_56">
    <path clip-path="url(#ped838e808d)" d="M 780.88575 298.8 
L 787.14975 298.8 
L 787.14975 249.262784 
L 780.88575 249.262784 
z
" style="fill:#a9a9a9;"/>
   </g>
   <g id="patch_57">
    <path clip-path="url(#ped838e808d)" d="M 793.41375 298.8 
L 799.67775 298.8 
L 799.67775 251.48226 
L 793.41375 251.48226 
z
" style="fill:#a9a9a9;"/>
   </g>
   <g id="patch_58">
    <path clip-path="url(#ped838e808d)" d="M 805.94175 298.8 
L 812.20575 298.8 
L 812.20575 252.787835 
L 805.94175 252.787835 
z
" style="fill:#a9a9a9;"/>
   </g>
   <g id="patch_59">
    <path clip-path="url(#ped838e808d)" d="M 818.46975 298.8 
L 824.73375 298.8 
L 824.73375 253.030298 
L 818.46975 253.030298 
z
" style="fill:#a9a9a9;"/>
   </g>
   <g id="patch_60">
    <path clip-path="url(#ped838e808d)" d="M 830.99775 298.8 
L 837.26175 298.8 
L 837.26175 253.142205 
L 830.99775 253.142205 
z
" style="fill:#a9a9a9;"/>
   </g>
   <g id="patch_61">
    <path clip-path="url(#ped838e808d)" d="M 843.52575 298.8 
L 849.78975 298.8 
L 849.78975 256.126374 
L 843.52575 256.126374 
z
" style="fill:#a9a9a9;"/>
   </g>
   <g id="patch_62">
    <path clip-path="url(#ped838e808d)" d="M 856.05375 298.8 
L 862.31775 298.8 
L 862.31775 256.984323 
L 856.05375 256.984323 
z
" style="fill:#a9a9a9;"/>
   </g>
   <g id="patch_63">
    <path clip-path="url(#ped838e808d)" d="M 868.58175 298.8 
L 874.84575 298.8 
L 874.84575 261.814948 
L 868.58175 261.814948 
z
" style="fill:#a9a9a9;"/>
   </g>
   <g id="patch_64">
    <path clip-path="url(#ped838e808d)" d="M 881.10975 298.8 
L 887.37375 298.8 
L 887.37375 262.784803 
L 881.10975 262.784803 
z
" style="fill:#a9a9a9;"/>
   </g>
   <g id="patch_65">
    <path clip-path="url(#ped838e808d)" d="M 893.63775 298.8 
L 899.90175 298.8 
L 899.90175 263.642752 
L 893.63775 263.642752 
z
" style="fill:#a9a9a9;"/>
   </g>
   <g id="patch_66">
    <path clip-path="url(#ped838e808d)" d="M 906.16575 298.8 
L 912.42975 298.8 
L 912.42975 263.698705 
L 906.16575 263.698705 
z
" style="fill:#a9a9a9;"/>
   </g>
   <g id="patch_67">
    <path clip-path="url(#ped838e808d)" d="M 918.69375 298.8 
L 924.95775 298.8 
L 924.95775 264.780466 
L 918.69375 264.780466 
z
" style="fill:#a9a9a9;"/>
   </g>
   <g id="patch_68">
    <path clip-path="url(#ped838e808d)" d="M 931.22175 298.8 
L 937.48575 298.8 
L 937.48575 265.768972 
L 931.22175 265.768972 
z
" style="fill:#a9a9a9;"/>
   </g>
   <g id="patch_69">
    <path clip-path="url(#ped838e808d)" d="M 943.74975 298.8 
L 950.01375 298.8 
L 950.01375 265.936832 
L 943.74975 265.936832 
z
" style="fill:#a9a9a9;"/>
   </g>
   <g id="patch_70">
    <path clip-path="url(#ped838e808d)" d="M 956.27775 298.8 
L 962.54175 298.8 
L 962.54175 267.690032 
L 956.27775 267.690032 
z
" style="fill:#a9a9a9;"/>
   </g>
   <g id="patch_71">
    <path clip-path="url(#ped838e808d)" d="M 968.80575 298.8 
L 975.06975 298.8 
L 975.06975 269.331325 
L 968.80575 269.331325 
z
" style="fill:#a9a9a9;"/>
   </g>
   <g id="patch_72">
    <path clip-path="url(#ped838e808d)" d="M 981.33375 298.8 
L 987.59775 298.8 
L 987.59775 269.368627 
L 981.33375 269.368627 
z
" style="fill:#a9a9a9;"/>
   </g>
   <g id="patch_73">
    <path clip-path="url(#ped838e808d)" d="M 993.86175 298.8 
L 1000.12575 298.8 
L 1000.12575 269.853555 
L 993.86175 269.853555 
z
" style="fill:#a9a9a9;"/>
   </g>
   <g id="patch_74">
    <path clip-path="url(#ped838e808d)" d="M 1006.38975 298.8 
L 1012.65375 298.8 
L 1012.65375 270.226576 
L 1006.38975 270.226576 
z
" style="fill:#a9a9a9;"/>
   </g>
   <g id="patch_75">
    <path clip-path="url(#ped838e808d)" d="M 1018.91775 298.8 
L 1025.18175 298.8 
L 1025.18175 270.580946 
L 1018.91775 270.580946 
z
" style="fill:#a9a9a9;"/>
   </g>
   <g id="patch_76">
    <path clip-path="url(#ped838e808d)" d="M 1031.44575 298.8 
L 1037.70975 298.8 
L 1037.70975 271.550801 
L 1031.44575 271.550801 
z
" style="fill:#a9a9a9;"/>
   </g>
   <g id="patch_77">
    <path clip-path="url(#ped838e808d)" d="M 1043.97375 298.8 
L 1050.23775 298.8 
L 1050.23775 274.553622 
L 1043.97375 274.553622 
z
" style="fill:#a9a9a9;"/>
   </g>
   <g id="patch_78">
    <path clip-path="url(#ped838e808d)" d="M 1056.50175 298.8 
L 1062.76575 298.8 
L 1062.76575 275.019898 
L 1056.50175 275.019898 
z
" style="fill:#a9a9a9;"/>
   </g>
   <g id="patch_79">
    <path clip-path="url(#ped838e808d)" d="M 1069.02975 298.8 
L 1075.29375 298.8 
L 1075.29375 275.504826 
L 1069.02975 275.504826 
z
" style="fill:#a9a9a9;"/>
   </g>
   <g id="patch_80">
    <path clip-path="url(#ped838e808d)" d="M 1081.55775 298.8 
L 1087.82175 298.8 
L 1087.82175 275.709988 
L 1081.55775 275.709988 
z
" style="fill:#a9a9a9;"/>
   </g>
   <g id="patch_81">
    <path clip-path="url(#ped838e808d)" d="M 1094.08575 298.8 
L 1100.34975 298.8 
L 1100.34975 276.064358 
L 1094.08575 276.064358 
z
" style="fill:#a9a9a9;"/>
   </g>
   <g id="patch_82">
    <path clip-path="url(#ped838e808d)" d="M 1106.61375 298.8 
L 1112.87775 298.8 
L 1112.87775 276.829051 
L 1106.61375 276.829051 
z
" style="fill:#a9a9a9;"/>
   </g>
   <g id="patch_83">
    <path clip-path="url(#ped838e808d)" d="M 1119.14175 298.8 
L 1125.40575 298.8 
L 1125.40575 277.127468 
L 1119.14175 277.127468 
z
" style="fill:#a9a9a9;"/>
   </g>
   <g id="patch_84">
    <path clip-path="url(#ped838e808d)" d="M 1131.66975 298.8 
L 1137.93375 298.8 
L 1137.93375 277.51914 
L 1131.66975 277.51914 
z
" style="fill:#a9a9a9;"/>
   </g>
   <g id="patch_85">
    <path clip-path="url(#ped838e808d)" d="M 1144.19775 298.8 
L 1150.46175 298.8 
L 1150.46175 278.022719 
L 1144.19775 278.022719 
z
" style="fill:#a9a9a9;"/>
   </g>
   <g id="patch_86">
    <path clip-path="url(#ped838e808d)" d="M 1156.72575 298.8 
L 1162.98975 298.8 
L 1162.98975 279.123132 
L 1156.72575 279.123132 
z
" style="fill:#a9a9a9;"/>
   </g>
   <g id="patch_87">
    <path clip-path="url(#ped838e808d)" d="M 1169.25375 298.8 
L 1175.51775 298.8 
L 1175.51775 279.197736 
L 1169.25375 279.197736 
z
" style="fill:#a9a9a9;"/>
   </g>
   <g id="patch_88">
    <path clip-path="url(#ped838e808d)" d="M 1181.78175 298.8 
L 1188.04575 298.8 
L 1188.04575 279.384246 
L 1181.78175 279.384246 
z
" style="fill:#a9a9a9;"/>
   </g>
   <g id="patch_89">
    <path clip-path="url(#ped838e808d)" d="M 1194.30975 298.8 
L 1200.57375 298.8 
L 1200.57375 279.887825 
L 1194.30975 279.887825 
z
" style="fill:#a9a9a9;"/>
   </g>
   <g id="patch_90">
    <path clip-path="url(#ped838e808d)" d="M 1206.83775 298.8 
L 1213.10175 298.8 
L 1213.10175 280.447357 
L 1206.83775 280.447357 
z
" style="fill:#a9a9a9;"/>
   </g>
   <g id="patch_91">
    <path clip-path="url(#ped838e808d)" d="M 1219.36575 298.8 
L 1225.62975 298.8 
L 1225.62975 281.715629 
L 1219.36575 281.715629 
z
" style="fill:#a9a9a9;"/>
   </g>
   <g id="patch_92">
    <path clip-path="url(#ped838e808d)" d="M 1231.89375 298.8 
L 1238.15775 298.8 
L 1238.15775 281.976744 
L 1231.89375 281.976744 
z
" style="fill:#a9a9a9;"/>
   </g>
   <g id="patch_93">
    <path clip-path="url(#ped838e808d)" d="M 1244.42175 298.8 
L 1250.68575 298.8 
L 1250.68575 281.976744 
L 1244.42175 281.976744 
z
" style="fill:#a9a9a9;"/>
   </g>
   <g id="patch_94">
    <path clip-path="url(#ped838e808d)" d="M 1256.94975 298.8 
L 1263.21375 298.8 
L 1263.21375 282.125952 
L 1256.94975 282.125952 
z
" style="fill:#a9a9a9;"/>
   </g>
   <g id="patch_95">
    <path clip-path="url(#ped838e808d)" d="M 1269.47775 298.8 
L 1275.74175 298.8 
L 1275.74175 282.163254 
L 1269.47775 282.163254 
z
" style="fill:#a9a9a9;"/>
   </g>
   <g id="patch_96">
    <path clip-path="url(#ped838e808d)" d="M 1282.00575 298.8 
L 1288.26975 298.8 
L 1288.26975 282.275161 
L 1282.00575 282.275161 
z
" style="fill:#a9a9a9;"/>
   </g>
   <g id="patch_97">
    <path clip-path="url(#ped838e808d)" d="M 1294.53375 298.8 
L 1300.79775 298.8 
L 1300.79775 282.498973 
L 1294.53375 282.498973 
z
" style="fill:#a9a9a9;"/>
   </g>
   <g id="patch_98">
    <path clip-path="url(#ped838e808d)" d="M 1307.06175 298.8 
L 1313.32575 298.8 
L 1313.32575 282.871995 
L 1307.06175 282.871995 
z
" style="fill:#a9a9a9;"/>
   </g>
   <g id="patch_99">
    <path clip-path="url(#ped838e808d)" d="M 1319.58975 298.8 
L 1325.85375 298.8 
L 1325.85375 283.860501 
L 1319.58975 283.860501 
z
" style="fill:#a9a9a9;"/>
   </g>
   <g id="patch_100">
    <path clip-path="url(#ped838e808d)" d="M 1332.11775 298.8 
L 1338.38175 298.8 
L 1338.38175 284.009709 
L 1332.11775 284.009709 
z
" style="fill:#a9a9a9;"/>
   </g>
   <g id="patch_101">
    <path clip-path="url(#ped838e808d)" d="M 1344.64575 298.8 
L 1350.90975 298.8 
L 1350.90975 285.240679 
L 1344.64575 285.240679 
z
" style="fill:#a9a9a9;"/>
   </g>
   <g id="patch_102">
    <path clip-path="url(#ped838e808d)" d="M 1357.17375 298.8 
L 1363.43775 298.8 
L 1363.43775 285.669654 
L 1357.17375 285.669654 
z
" style="fill:#a9a9a9;"/>
   </g>
   <g id="patch_103">
    <path d="M 113.76975 298.8 
L 113.76975 7.2 
" style="fill:none;stroke:#262626;stroke-linecap:square;stroke-linejoin:miter;stroke-width:1.25;"/>
   </g>
   <g id="patch_104">
    <path d="M 1366.56975 298.8 
L 1366.56975 7.2 
" style="fill:none;stroke:#262626;stroke-linecap:square;stroke-linejoin:miter;stroke-width:1.25;"/>
   </g>
   <g id="patch_105">
    <path d="M 113.76975 298.8 
L 1366.56975 298.8 
" style="fill:none;stroke:#262626;stroke-linecap:square;stroke-linejoin:miter;stroke-width:1.25;"/>
   </g>
   <g id="patch_106">
    <path d="M 113.76975 7.2 
L 1366.56975 7.2 
" style="fill:none;stroke:#262626;stroke-linecap:square;stroke-linejoin:miter;stroke-width:1.25;"/>
   </g>
  </g>
 </g>
 <defs>
  <clipPath id="ped838e808d">
   <rect height="291.6" width="1252.8" x="113.76975" y="7.2"/>
  </clipPath>
 </defs>
</svg>
