<?xml version="1.0" encoding="utf-8" standalone="no"?>
<!DOCTYPE svg PUBLIC "-//W3C//DTD SVG 1.1//EN"
  "http://www.w3.org/Graphics/SVG/1.1/DTD/svg11.dtd">
<!-- Created with matplotlib (https://matplotlib.org/) -->
<svg height="576.689375pt" version="1.1" viewBox="0 0 1095.3125 576.689375" width="1095.3125pt" xmlns="http://www.w3.org/2000/svg" xmlns:xlink="http://www.w3.org/1999/xlink">
 <metadata>
  <rdf:RDF xmlns:cc="http://creativecommons.org/ns#" xmlns:dc="http://purl.org/dc/elements/1.1/" xmlns:rdf="http://www.w3.org/1999/02/22-rdf-syntax-ns#">
   <cc:Work>
    <dc:type rdf:resource="http://purl.org/dc/dcmitype/StillImage"/>
    <dc:date>2021-08-30T14:15:20.223208</dc:date>
    <dc:format>image/svg+xml</dc:format>
    <dc:creator>
     <cc:Agent>
      <dc:title>Matplotlib v3.3.4, https://matplotlib.org/</dc:title>
     </cc:Agent>
    </dc:creator>
   </cc:Work>
  </rdf:RDF>
 </metadata>
 <defs>
  <style type="text/css">*{stroke-linecap:butt;stroke-linejoin:round;}</style>
 </defs>
 <g id="figure_1">
  <g id="patch_1">
   <path d="M 0 576.689375 
L 1095.3125 576.689375 
L 1095.3125 0 
L 0 0 
z
" style="fill:#ffffff;"/>
  </g>
  <g id="axes_1">
   <g id="patch_2">
    <path d="M 83.7125 442.08 
L 1088.1125 442.08 
L 1088.1125 7.2 
L 83.7125 7.2 
z
" style="fill:#ffffff;"/>
   </g>
   <g id="matplotlib.axis_1">
    <g id="xtick_1">
     <g id="line2d_1">
      <defs>
       <path d="M 0 0 
L 0 6 
" id="mb7d809a981" style="stroke:#262626;stroke-width:0.8;"/>
      </defs>
      <g>
       <use style="fill:#262626;stroke:#262626;stroke-width:0.8;" x="117.1925" xlink:href="#mb7d809a981" y="442.08"/>
      </g>
     </g>
     <g id="text_1">
      <!-- network -->
      <g style="fill:#262626;" transform="translate(122.362813 521.605)rotate(-90)scale(0.2 -0.2)">
       <defs>
        <path d="M 6.59375 0 
L 6.59375 51.859375 
L 14.5 51.859375 
L 14.5 44.484375 
Q 20.21875 53.03125 31 53.03125 
Q 35.6875 53.03125 39.625 51.34375 
Q 43.5625 49.65625 45.515625 46.921875 
Q 47.46875 44.1875 48.25 40.4375 
Q 48.734375 37.984375 48.734375 31.890625 
L 48.734375 0 
L 39.9375 0 
L 39.9375 31.546875 
Q 39.9375 36.921875 38.90625 39.578125 
Q 37.890625 42.234375 35.28125 43.8125 
Q 32.671875 45.40625 29.15625 45.40625 
Q 23.53125 45.40625 19.453125 41.84375 
Q 15.375 38.28125 15.375 28.328125 
L 15.375 0 
z
" id="ArialMT-110"/>
        <path d="M 42.09375 16.703125 
L 51.171875 15.578125 
Q 49.03125 7.625 43.21875 3.21875 
Q 37.40625 -1.171875 28.375 -1.171875 
Q 17 -1.171875 10.328125 5.828125 
Q 3.65625 12.84375 3.65625 25.484375 
Q 3.65625 38.578125 10.390625 45.796875 
Q 17.140625 53.03125 27.875 53.03125 
Q 38.28125 53.03125 44.875 45.953125 
Q 51.46875 38.875 51.46875 26.03125 
Q 51.46875 25.25 51.421875 23.6875 
L 12.75 23.6875 
Q 13.234375 15.140625 17.578125 10.59375 
Q 21.921875 6.0625 28.421875 6.0625 
Q 33.25 6.0625 36.671875 8.59375 
Q 40.09375 11.140625 42.09375 16.703125 
z
M 13.234375 30.90625 
L 42.1875 30.90625 
Q 41.609375 37.453125 38.875 40.71875 
Q 34.671875 45.796875 27.984375 45.796875 
Q 21.921875 45.796875 17.796875 41.75 
Q 13.671875 37.703125 13.234375 30.90625 
z
" id="ArialMT-101"/>
        <path d="M 25.78125 7.859375 
L 27.046875 0.09375 
Q 23.34375 -0.6875 20.40625 -0.6875 
Q 15.625 -0.6875 12.984375 0.828125 
Q 10.359375 2.34375 9.28125 4.8125 
Q 8.203125 7.28125 8.203125 15.1875 
L 8.203125 45.015625 
L 1.765625 45.015625 
L 1.765625 51.859375 
L 8.203125 51.859375 
L 8.203125 64.703125 
L 16.9375 69.96875 
L 16.9375 51.859375 
L 25.78125 51.859375 
L 25.78125 45.015625 
L 16.9375 45.015625 
L 16.9375 14.703125 
Q 16.9375 10.9375 17.40625 9.859375 
Q 17.875 8.796875 18.921875 8.15625 
Q 19.96875 7.515625 21.921875 7.515625 
Q 23.390625 7.515625 25.78125 7.859375 
z
" id="ArialMT-116"/>
        <path d="M 16.15625 0 
L 0.296875 51.859375 
L 9.375 51.859375 
L 17.625 21.921875 
L 20.703125 10.796875 
Q 20.90625 11.625 23.390625 21.484375 
L 31.640625 51.859375 
L 40.671875 51.859375 
L 48.4375 21.78125 
L 51.03125 11.859375 
L 54 21.875 
L 62.890625 51.859375 
L 71.4375 51.859375 
L 55.21875 0 
L 46.09375 0 
L 37.84375 31.0625 
L 35.84375 39.890625 
L 25.34375 0 
z
" id="ArialMT-119"/>
        <path d="M 3.328125 25.921875 
Q 3.328125 40.328125 11.328125 47.265625 
Q 18.015625 53.03125 27.640625 53.03125 
Q 38.328125 53.03125 45.109375 46.015625 
Q 51.90625 39.015625 51.90625 26.65625 
Q 51.90625 16.65625 48.90625 10.90625 
Q 45.90625 5.171875 40.15625 2 
Q 34.421875 -1.171875 27.640625 -1.171875 
Q 16.75 -1.171875 10.03125 5.8125 
Q 3.328125 12.796875 3.328125 25.921875 
z
M 12.359375 25.921875 
Q 12.359375 15.96875 16.703125 11.015625 
Q 21.046875 6.0625 27.640625 6.0625 
Q 34.1875 6.0625 38.53125 11.03125 
Q 42.875 16.015625 42.875 26.21875 
Q 42.875 35.84375 38.5 40.796875 
Q 34.125 45.75 27.640625 45.75 
Q 21.046875 45.75 16.703125 40.8125 
Q 12.359375 35.890625 12.359375 25.921875 
z
" id="ArialMT-111"/>
        <path d="M 6.5 0 
L 6.5 51.859375 
L 14.40625 51.859375 
L 14.40625 44 
Q 17.4375 49.515625 20 51.265625 
Q 22.5625 53.03125 25.640625 53.03125 
Q 30.078125 53.03125 34.671875 50.203125 
L 31.640625 42.046875 
Q 28.421875 43.953125 25.203125 43.953125 
Q 22.3125 43.953125 20.015625 42.21875 
Q 17.71875 40.484375 16.75 37.40625 
Q 15.28125 32.71875 15.28125 27.15625 
L 15.28125 0 
z
" id="ArialMT-114"/>
        <path d="M 6.640625 0 
L 6.640625 71.578125 
L 15.4375 71.578125 
L 15.4375 30.765625 
L 36.234375 51.859375 
L 47.609375 51.859375 
L 27.78125 32.625 
L 49.609375 0 
L 38.765625 0 
L 21.625 26.515625 
L 15.4375 20.5625 
L 15.4375 0 
z
" id="ArialMT-107"/>
       </defs>
       <use xlink:href="#ArialMT-110"/>
       <use x="55.615234" xlink:href="#ArialMT-101"/>
       <use x="111.230469" xlink:href="#ArialMT-116"/>
       <use x="139.013672" xlink:href="#ArialMT-119"/>
       <use x="211.230469" xlink:href="#ArialMT-111"/>
       <use x="266.845703" xlink:href="#ArialMT-114"/>
       <use x="300.146484" xlink:href="#ArialMT-107"/>
      </g>
     </g>
    </g>
    <g id="xtick_2">
     <g id="line2d_2">
      <g>
       <use style="fill:#262626;stroke:#262626;stroke-width:0.8;" x="184.1525" xlink:href="#mb7d809a981" y="442.08"/>
      </g>
     </g>
     <g id="text_2">
      <!-- system -->
      <g style="fill:#262626;" transform="translate(189.088438 514.9175)rotate(-90)scale(0.2 -0.2)">
       <defs>
        <path d="M 3.078125 15.484375 
L 11.765625 16.84375 
Q 12.5 11.625 15.84375 8.84375 
Q 19.1875 6.0625 25.203125 6.0625 
Q 31.25 6.0625 34.171875 8.515625 
Q 37.109375 10.984375 37.109375 14.3125 
Q 37.109375 17.28125 34.515625 19 
Q 32.71875 20.171875 25.53125 21.96875 
Q 15.875 24.421875 12.140625 26.203125 
Q 8.40625 27.984375 6.46875 31.125 
Q 4.546875 34.28125 4.546875 38.09375 
Q 4.546875 41.546875 6.125 44.5 
Q 7.71875 47.46875 10.453125 49.421875 
Q 12.5 50.921875 16.03125 51.96875 
Q 19.578125 53.03125 23.640625 53.03125 
Q 29.734375 53.03125 34.34375 51.265625 
Q 38.96875 49.515625 41.15625 46.5 
Q 43.359375 43.5 44.1875 38.484375 
L 35.59375 37.3125 
Q 35.015625 41.3125 32.203125 43.546875 
Q 29.390625 45.796875 24.265625 45.796875 
Q 18.21875 45.796875 15.625 43.796875 
Q 13.03125 41.796875 13.03125 39.109375 
Q 13.03125 37.40625 14.109375 36.03125 
Q 15.1875 34.625 17.484375 33.6875 
Q 18.796875 33.203125 25.25 31.453125 
Q 34.578125 28.953125 38.25 27.359375 
Q 41.9375 25.78125 44.03125 22.75 
Q 46.140625 19.734375 46.140625 15.234375 
Q 46.140625 10.84375 43.578125 6.953125 
Q 41.015625 3.078125 36.171875 0.953125 
Q 31.34375 -1.171875 25.25 -1.171875 
Q 15.140625 -1.171875 9.84375 3.03125 
Q 4.546875 7.234375 3.078125 15.484375 
z
" id="ArialMT-115"/>
        <path d="M 6.203125 -19.96875 
L 5.21875 -11.71875 
Q 8.109375 -12.5 10.25 -12.5 
Q 13.1875 -12.5 14.9375 -11.515625 
Q 16.703125 -10.546875 17.828125 -8.796875 
Q 18.65625 -7.46875 20.515625 -2.25 
Q 20.75 -1.515625 21.296875 -0.09375 
L 1.609375 51.859375 
L 11.078125 51.859375 
L 21.875 21.828125 
Q 23.96875 16.109375 25.640625 9.8125 
Q 27.15625 15.875 29.25 21.625 
L 40.328125 51.859375 
L 49.125 51.859375 
L 29.390625 -0.875 
Q 26.21875 -9.421875 24.46875 -12.640625 
Q 22.125 -17 19.09375 -19.015625 
Q 16.0625 -21.046875 11.859375 -21.046875 
Q 9.328125 -21.046875 6.203125 -19.96875 
z
" id="ArialMT-121"/>
        <path d="M 6.59375 0 
L 6.59375 51.859375 
L 14.453125 51.859375 
L 14.453125 44.578125 
Q 16.890625 48.390625 20.9375 50.703125 
Q 25 53.03125 30.171875 53.03125 
Q 35.9375 53.03125 39.625 50.640625 
Q 43.3125 48.25 44.828125 43.953125 
Q 50.984375 53.03125 60.84375 53.03125 
Q 68.5625 53.03125 72.703125 48.75 
Q 76.859375 44.484375 76.859375 35.59375 
L 76.859375 0 
L 68.109375 0 
L 68.109375 32.671875 
Q 68.109375 37.9375 67.25 40.25 
Q 66.40625 42.578125 64.15625 43.984375 
Q 61.921875 45.40625 58.890625 45.40625 
Q 53.421875 45.40625 49.796875 41.765625 
Q 46.1875 38.140625 46.1875 30.125 
L 46.1875 0 
L 37.40625 0 
L 37.40625 33.6875 
Q 37.40625 39.546875 35.25 42.46875 
Q 33.109375 45.40625 28.21875 45.40625 
Q 24.515625 45.40625 21.359375 43.453125 
Q 18.21875 41.5 16.796875 37.734375 
Q 15.375 33.984375 15.375 26.90625 
L 15.375 0 
z
" id="ArialMT-109"/>
       </defs>
       <use xlink:href="#ArialMT-115"/>
       <use x="50" xlink:href="#ArialMT-121"/>
       <use x="100" xlink:href="#ArialMT-115"/>
       <use x="150" xlink:href="#ArialMT-116"/>
       <use x="177.783203" xlink:href="#ArialMT-101"/>
       <use x="233.398438" xlink:href="#ArialMT-109"/>
      </g>
     </g>
    </g>
    <g id="xtick_3">
     <g id="line2d_3">
      <g>
       <use style="fill:#262626;stroke:#262626;stroke-width:0.8;" x="251.1125" xlink:href="#mb7d809a981" y="442.08"/>
      </g>
     </g>
     <g id="text_3">
      <!-- model -->
      <g style="fill:#262626;" transform="translate(256.282813 506.04875)rotate(-90)scale(0.2 -0.2)">
       <defs>
        <path d="M 40.234375 0 
L 40.234375 6.546875 
Q 35.296875 -1.171875 25.734375 -1.171875 
Q 19.53125 -1.171875 14.328125 2.25 
Q 9.125 5.671875 6.265625 11.796875 
Q 3.421875 17.921875 3.421875 25.875 
Q 3.421875 33.640625 6 39.96875 
Q 8.59375 46.296875 13.765625 49.65625 
Q 18.953125 53.03125 25.34375 53.03125 
Q 30.03125 53.03125 33.6875 51.046875 
Q 37.359375 49.078125 39.65625 45.90625 
L 39.65625 71.578125 
L 48.390625 71.578125 
L 48.390625 0 
z
M 12.453125 25.875 
Q 12.453125 15.921875 16.640625 10.984375 
Q 20.84375 6.0625 26.5625 6.0625 
Q 32.328125 6.0625 36.34375 10.765625 
Q 40.375 15.484375 40.375 25.140625 
Q 40.375 35.796875 36.265625 40.765625 
Q 32.171875 45.75 26.171875 45.75 
Q 20.3125 45.75 16.375 40.96875 
Q 12.453125 36.1875 12.453125 25.875 
z
" id="ArialMT-100"/>
        <path d="M 6.390625 0 
L 6.390625 71.578125 
L 15.1875 71.578125 
L 15.1875 0 
z
" id="ArialMT-108"/>
       </defs>
       <use xlink:href="#ArialMT-109"/>
       <use x="83.300781" xlink:href="#ArialMT-111"/>
       <use x="138.916016" xlink:href="#ArialMT-100"/>
       <use x="194.53125" xlink:href="#ArialMT-101"/>
       <use x="250.146484" xlink:href="#ArialMT-108"/>
      </g>
     </g>
    </g>
    <g id="xtick_4">
     <g id="line2d_4">
      <g>
       <use style="fill:#262626;stroke:#262626;stroke-width:0.8;" x="318.0725" xlink:href="#mb7d809a981" y="442.08"/>
      </g>
     </g>
     <g id="text_4">
      <!-- control -->
      <g style="fill:#262626;" transform="translate(323.242813 511.605)rotate(-90)scale(0.2 -0.2)">
       <defs>
        <path d="M 40.4375 19 
L 49.078125 17.875 
Q 47.65625 8.9375 41.8125 3.875 
Q 35.984375 -1.171875 27.484375 -1.171875 
Q 16.84375 -1.171875 10.375 5.78125 
Q 3.90625 12.75 3.90625 25.734375 
Q 3.90625 34.125 6.6875 40.421875 
Q 9.46875 46.734375 15.15625 49.875 
Q 20.84375 53.03125 27.546875 53.03125 
Q 35.984375 53.03125 41.359375 48.75 
Q 46.734375 44.484375 48.25 36.625 
L 39.703125 35.296875 
Q 38.484375 40.53125 35.375 43.15625 
Q 32.28125 45.796875 27.875 45.796875 
Q 21.234375 45.796875 17.078125 41.03125 
Q 12.9375 36.28125 12.9375 25.984375 
Q 12.9375 15.53125 16.9375 10.796875 
Q 20.953125 6.0625 27.390625 6.0625 
Q 32.5625 6.0625 36.03125 9.234375 
Q 39.5 12.40625 40.4375 19 
z
" id="ArialMT-99"/>
       </defs>
       <use xlink:href="#ArialMT-99"/>
       <use x="50" xlink:href="#ArialMT-111"/>
       <use x="105.615234" xlink:href="#ArialMT-110"/>
       <use x="161.230469" xlink:href="#ArialMT-116"/>
       <use x="189.013672" xlink:href="#ArialMT-114"/>
       <use x="222.314453" xlink:href="#ArialMT-111"/>
       <use x="277.929688" xlink:href="#ArialMT-108"/>
      </g>
     </g>
    </g>
    <g id="xtick_5">
     <g id="line2d_5">
      <g>
       <use style="fill:#262626;stroke:#262626;stroke-width:0.8;" x="385.0325" xlink:href="#mb7d809a981" y="442.08"/>
      </g>
     </g>
     <g id="text_5">
      <!-- image -->
      <g style="fill:#262626;" transform="translate(390.085625 506.04875)rotate(-90)scale(0.2 -0.2)">
       <defs>
        <path d="M 6.640625 61.46875 
L 6.640625 71.578125 
L 15.4375 71.578125 
L 15.4375 61.46875 
z
M 6.640625 0 
L 6.640625 51.859375 
L 15.4375 51.859375 
L 15.4375 0 
z
" id="ArialMT-105"/>
        <path d="M 40.4375 6.390625 
Q 35.546875 2.25 31.03125 0.53125 
Q 26.515625 -1.171875 21.34375 -1.171875 
Q 12.796875 -1.171875 8.203125 3 
Q 3.609375 7.171875 3.609375 13.671875 
Q 3.609375 17.484375 5.34375 20.625 
Q 7.078125 23.78125 9.890625 25.6875 
Q 12.703125 27.59375 16.21875 28.5625 
Q 18.796875 29.25 24.03125 29.890625 
Q 34.671875 31.15625 39.703125 32.90625 
Q 39.75 34.71875 39.75 35.203125 
Q 39.75 40.578125 37.25 42.78125 
Q 33.890625 45.75 27.25 45.75 
Q 21.046875 45.75 18.09375 43.578125 
Q 15.140625 41.40625 13.71875 35.890625 
L 5.125 37.0625 
Q 6.296875 42.578125 8.984375 45.96875 
Q 11.671875 49.359375 16.75 51.1875 
Q 21.828125 53.03125 28.515625 53.03125 
Q 35.15625 53.03125 39.296875 51.46875 
Q 43.453125 49.90625 45.40625 47.53125 
Q 47.359375 45.171875 48.140625 41.546875 
Q 48.578125 39.3125 48.578125 33.453125 
L 48.578125 21.734375 
Q 48.578125 9.46875 49.140625 6.21875 
Q 49.703125 2.984375 51.375 0 
L 42.1875 0 
Q 40.828125 2.734375 40.4375 6.390625 
z
M 39.703125 26.03125 
Q 34.90625 24.078125 25.34375 22.703125 
Q 19.921875 21.921875 17.671875 20.9375 
Q 15.4375 19.96875 14.203125 18.09375 
Q 12.984375 16.21875 12.984375 13.921875 
Q 12.984375 10.40625 15.640625 8.0625 
Q 18.3125 5.71875 23.4375 5.71875 
Q 28.515625 5.71875 32.46875 7.9375 
Q 36.421875 10.15625 38.28125 14.015625 
Q 39.703125 17 39.703125 22.796875 
z
" id="ArialMT-97"/>
        <path d="M 4.984375 -4.296875 
L 13.53125 -5.5625 
Q 14.0625 -9.515625 16.5 -11.328125 
Q 19.78125 -13.765625 25.4375 -13.765625 
Q 31.546875 -13.765625 34.859375 -11.328125 
Q 38.1875 -8.890625 39.359375 -4.5 
Q 40.046875 -1.8125 39.984375 6.78125 
Q 34.234375 0 25.640625 0 
Q 14.9375 0 9.078125 7.71875 
Q 3.21875 15.4375 3.21875 26.21875 
Q 3.21875 33.640625 5.90625 39.90625 
Q 8.59375 46.1875 13.6875 49.609375 
Q 18.796875 53.03125 25.6875 53.03125 
Q 34.859375 53.03125 40.828125 45.609375 
L 40.828125 51.859375 
L 48.921875 51.859375 
L 48.921875 7.03125 
Q 48.921875 -5.078125 46.453125 -10.125 
Q 44 -15.1875 38.640625 -18.109375 
Q 33.296875 -21.046875 25.484375 -21.046875 
Q 16.21875 -21.046875 10.5 -16.875 
Q 4.78125 -12.703125 4.984375 -4.296875 
z
M 12.25 26.859375 
Q 12.25 16.65625 16.296875 11.96875 
Q 20.359375 7.28125 26.46875 7.28125 
Q 32.515625 7.28125 36.609375 11.9375 
Q 40.71875 16.609375 40.71875 26.5625 
Q 40.71875 36.078125 36.5 40.90625 
Q 32.28125 45.75 26.3125 45.75 
Q 20.453125 45.75 16.34375 40.984375 
Q 12.25 36.234375 12.25 26.859375 
z
" id="ArialMT-103"/>
       </defs>
       <use xlink:href="#ArialMT-105"/>
       <use x="22.216797" xlink:href="#ArialMT-109"/>
       <use x="105.517578" xlink:href="#ArialMT-97"/>
       <use x="161.132812" xlink:href="#ArialMT-103"/>
       <use x="216.748047" xlink:href="#ArialMT-101"/>
      </g>
     </g>
    </g>
    <g id="xtick_6">
     <g id="line2d_6">
      <g>
       <use style="fill:#262626;stroke:#262626;stroke-width:0.8;" x="451.9925" xlink:href="#mb7d809a981" y="442.08"/>
      </g>
     </g>
     <g id="text_6">
      <!-- analysis -->
      <g style="fill:#262626;" transform="translate(457.045625 523.833125)rotate(-90)scale(0.2 -0.2)">
       <use xlink:href="#ArialMT-97"/>
       <use x="55.615234" xlink:href="#ArialMT-110"/>
       <use x="111.230469" xlink:href="#ArialMT-97"/>
       <use x="166.845703" xlink:href="#ArialMT-108"/>
       <use x="189.0625" xlink:href="#ArialMT-121"/>
       <use x="239.0625" xlink:href="#ArialMT-115"/>
       <use x="289.0625" xlink:href="#ArialMT-105"/>
       <use x="311.279297" xlink:href="#ArialMT-115"/>
      </g>
     </g>
    </g>
    <g id="xtick_7">
     <g id="line2d_7">
      <g>
       <use style="fill:#262626;stroke:#262626;stroke-width:0.8;" x="518.9525" xlink:href="#mb7d809a981" y="442.08"/>
      </g>
     </g>
     <g id="text_7">
      <!-- robot -->
      <g style="fill:#262626;" transform="translate(524.122813 497.16125)rotate(-90)scale(0.2 -0.2)">
       <defs>
        <path d="M 14.703125 0 
L 6.546875 0 
L 6.546875 71.578125 
L 15.328125 71.578125 
L 15.328125 46.046875 
Q 20.90625 53.03125 29.546875 53.03125 
Q 34.328125 53.03125 38.59375 51.09375 
Q 42.875 49.171875 45.625 45.671875 
Q 48.390625 42.1875 49.953125 37.25 
Q 51.515625 32.328125 51.515625 26.703125 
Q 51.515625 13.375 44.921875 6.09375 
Q 38.328125 -1.171875 29.109375 -1.171875 
Q 19.921875 -1.171875 14.703125 6.5 
z
M 14.59375 26.3125 
Q 14.59375 17 17.140625 12.84375 
Q 21.296875 6.0625 28.375 6.0625 
Q 34.125 6.0625 38.328125 11.0625 
Q 42.53125 16.0625 42.53125 25.984375 
Q 42.53125 36.140625 38.5 40.96875 
Q 34.46875 45.796875 28.765625 45.796875 
Q 23 45.796875 18.796875 40.796875 
Q 14.59375 35.796875 14.59375 26.3125 
z
" id="ArialMT-98"/>
       </defs>
       <use xlink:href="#ArialMT-114"/>
       <use x="33.300781" xlink:href="#ArialMT-111"/>
       <use x="88.916016" xlink:href="#ArialMT-98"/>
       <use x="144.53125" xlink:href="#ArialMT-111"/>
       <use x="200.146484" xlink:href="#ArialMT-116"/>
      </g>
     </g>
    </g>
    <g id="xtick_8">
     <g id="line2d_8">
      <g>
       <use style="fill:#262626;stroke:#262626;stroke-width:0.8;" x="585.9125" xlink:href="#mb7d809a981" y="442.08"/>
      </g>
     </g>
     <g id="text_8">
      <!-- data -->
      <g style="fill:#262626;" transform="translate(591.082813 490.501875)rotate(-90)scale(0.2 -0.2)">
       <use xlink:href="#ArialMT-100"/>
       <use x="55.615234" xlink:href="#ArialMT-97"/>
       <use x="111.230469" xlink:href="#ArialMT-116"/>
       <use x="139.013672" xlink:href="#ArialMT-97"/>
      </g>
     </g>
    </g>
    <g id="xtick_9">
     <g id="line2d_9">
      <g>
       <use style="fill:#262626;stroke:#262626;stroke-width:0.8;" x="652.8725" xlink:href="#mb7d809a981" y="442.08"/>
      </g>
     </g>
     <g id="text_9">
      <!-- multi -->
      <g style="fill:#262626;" transform="translate(658.042813 493.805)rotate(-90)scale(0.2 -0.2)">
       <defs>
        <path d="M 40.578125 0 
L 40.578125 7.625 
Q 34.515625 -1.171875 24.125 -1.171875 
Q 19.53125 -1.171875 15.546875 0.578125 
Q 11.578125 2.34375 9.640625 5 
Q 7.71875 7.671875 6.9375 11.53125 
Q 6.390625 14.109375 6.390625 19.734375 
L 6.390625 51.859375 
L 15.1875 51.859375 
L 15.1875 23.09375 
Q 15.1875 16.21875 15.71875 13.8125 
Q 16.546875 10.359375 19.234375 8.375 
Q 21.921875 6.390625 25.875 6.390625 
Q 29.828125 6.390625 33.296875 8.421875 
Q 36.765625 10.453125 38.203125 13.9375 
Q 39.65625 17.4375 39.65625 24.078125 
L 39.65625 51.859375 
L 48.4375 51.859375 
L 48.4375 0 
z
" id="ArialMT-117"/>
       </defs>
       <use xlink:href="#ArialMT-109"/>
       <use x="83.300781" xlink:href="#ArialMT-117"/>
       <use x="138.916016" xlink:href="#ArialMT-108"/>
       <use x="161.132812" xlink:href="#ArialMT-116"/>
       <use x="188.916016" xlink:href="#ArialMT-105"/>
      </g>
     </g>
    </g>
    <g id="xtick_10">
     <g id="line2d_10">
      <g>
       <use style="fill:#262626;stroke:#262626;stroke-width:0.8;" x="719.8325" xlink:href="#mb7d809a981" y="442.08"/>
      </g>
     </g>
     <g id="text_10">
      <!-- time -->
      <g style="fill:#262626;" transform="translate(725.002813 489.36125)rotate(-90)scale(0.2 -0.2)">
       <use xlink:href="#ArialMT-116"/>
       <use x="27.783203" xlink:href="#ArialMT-105"/>
       <use x="50" xlink:href="#ArialMT-109"/>
       <use x="133.300781" xlink:href="#ArialMT-101"/>
      </g>
     </g>
    </g>
    <g id="xtick_11">
     <g id="line2d_11">
      <g>
       <use style="fill:#262626;stroke:#262626;stroke-width:0.8;" x="786.7925" xlink:href="#mb7d809a981" y="442.08"/>
      </g>
     </g>
     <g id="text_11">
      <!-- design -->
      <g style="fill:#262626;" transform="translate(791.845625 510.51125)rotate(-90)scale(0.2 -0.2)">
       <use xlink:href="#ArialMT-100"/>
       <use x="55.615234" xlink:href="#ArialMT-101"/>
       <use x="111.230469" xlink:href="#ArialMT-115"/>
       <use x="161.230469" xlink:href="#ArialMT-105"/>
       <use x="183.447266" xlink:href="#ArialMT-103"/>
       <use x="239.0625" xlink:href="#ArialMT-110"/>
      </g>
     </g>
    </g>
    <g id="xtick_12">
     <g id="line2d_12">
      <g>
       <use style="fill:#262626;stroke:#262626;stroke-width:0.8;" x="853.7525" xlink:href="#mb7d809a981" y="442.08"/>
      </g>
     </g>
     <g id="text_12">
      <!-- learning -->
      <g style="fill:#262626;" transform="translate(858.805625 522.73625)rotate(-90)scale(0.2 -0.2)">
       <use xlink:href="#ArialMT-108"/>
       <use x="22.216797" xlink:href="#ArialMT-101"/>
       <use x="77.832031" xlink:href="#ArialMT-97"/>
       <use x="133.447266" xlink:href="#ArialMT-114"/>
       <use x="166.748047" xlink:href="#ArialMT-110"/>
       <use x="222.363281" xlink:href="#ArialMT-105"/>
       <use x="244.580078" xlink:href="#ArialMT-110"/>
       <use x="300.195312" xlink:href="#ArialMT-103"/>
      </g>
     </g>
    </g>
    <g id="xtick_13">
     <g id="line2d_13">
      <g>
       <use style="fill:#262626;stroke:#262626;stroke-width:0.8;" x="920.7125" xlink:href="#mb7d809a981" y="442.08"/>
      </g>
     </g>
     <g id="text_13">
      <!-- channel -->
      <g style="fill:#262626;" transform="translate(925.882813 521.633125)rotate(-90)scale(0.2 -0.2)">
       <defs>
        <path d="M 6.59375 0 
L 6.59375 71.578125 
L 15.375 71.578125 
L 15.375 45.90625 
Q 21.53125 53.03125 30.90625 53.03125 
Q 36.671875 53.03125 40.921875 50.75 
Q 45.171875 48.484375 47 44.484375 
Q 48.828125 40.484375 48.828125 32.859375 
L 48.828125 0 
L 40.046875 0 
L 40.046875 32.859375 
Q 40.046875 39.453125 37.1875 42.453125 
Q 34.328125 45.453125 29.109375 45.453125 
Q 25.203125 45.453125 21.75 43.421875 
Q 18.3125 41.40625 16.84375 37.9375 
Q 15.375 34.46875 15.375 28.375 
L 15.375 0 
z
" id="ArialMT-104"/>
       </defs>
       <use xlink:href="#ArialMT-99"/>
       <use x="50" xlink:href="#ArialMT-104"/>
       <use x="105.615234" xlink:href="#ArialMT-97"/>
       <use x="161.230469" xlink:href="#ArialMT-110"/>
       <use x="216.845703" xlink:href="#ArialMT-110"/>
       <use x="272.460938" xlink:href="#ArialMT-101"/>
       <use x="328.076172" xlink:href="#ArialMT-108"/>
      </g>
     </g>
    </g>
    <g id="xtick_14">
     <g id="line2d_14">
      <g>
       <use style="fill:#262626;stroke:#262626;stroke-width:0.8;" x="987.6725" xlink:href="#mb7d809a981" y="442.08"/>
      </g>
     </g>
     <g id="text_14">
      <!-- detection -->
      <g style="fill:#262626;" transform="translate(992.842813 532.745625)rotate(-90)scale(0.2 -0.2)">
       <use xlink:href="#ArialMT-100"/>
       <use x="55.615234" xlink:href="#ArialMT-101"/>
       <use x="111.230469" xlink:href="#ArialMT-116"/>
       <use x="139.013672" xlink:href="#ArialMT-101"/>
       <use x="194.628906" xlink:href="#ArialMT-99"/>
       <use x="244.628906" xlink:href="#ArialMT-116"/>
       <use x="272.412109" xlink:href="#ArialMT-105"/>
       <use x="294.628906" xlink:href="#ArialMT-111"/>
       <use x="350.244141" xlink:href="#ArialMT-110"/>
      </g>
     </g>
    </g>
    <g id="xtick_15">
     <g id="line2d_15">
      <g>
       <use style="fill:#262626;stroke:#262626;stroke-width:0.8;" x="1054.6325" xlink:href="#mb7d809a981" y="442.08"/>
      </g>
     </g>
     <g id="text_15">
      <!-- application -->
      <g style="fill:#262626;" transform="translate(1059.802813 547.19875)rotate(-90)scale(0.2 -0.2)">
       <defs>
        <path d="M 6.59375 -19.875 
L 6.59375 51.859375 
L 14.59375 51.859375 
L 14.59375 45.125 
Q 17.4375 49.078125 21 51.046875 
Q 24.5625 53.03125 29.640625 53.03125 
Q 36.28125 53.03125 41.359375 49.609375 
Q 46.4375 46.1875 49.015625 39.953125 
Q 51.609375 33.734375 51.609375 26.3125 
Q 51.609375 18.359375 48.75 11.984375 
Q 45.90625 5.609375 40.453125 2.21875 
Q 35.015625 -1.171875 29 -1.171875 
Q 24.609375 -1.171875 21.109375 0.6875 
Q 17.625 2.546875 15.375 5.375 
L 15.375 -19.875 
z
M 14.546875 25.640625 
Q 14.546875 15.625 18.59375 10.84375 
Q 22.65625 6.0625 28.421875 6.0625 
Q 34.28125 6.0625 38.453125 11.015625 
Q 42.625 15.96875 42.625 26.375 
Q 42.625 36.28125 38.546875 41.203125 
Q 34.46875 46.140625 28.8125 46.140625 
Q 23.1875 46.140625 18.859375 40.890625 
Q 14.546875 35.640625 14.546875 25.640625 
z
" id="ArialMT-112"/>
       </defs>
       <use xlink:href="#ArialMT-97"/>
       <use x="55.615234" xlink:href="#ArialMT-112"/>
       <use x="111.230469" xlink:href="#ArialMT-112"/>
       <use x="166.845703" xlink:href="#ArialMT-108"/>
       <use x="189.0625" xlink:href="#ArialMT-105"/>
       <use x="211.279297" xlink:href="#ArialMT-99"/>
       <use x="261.279297" xlink:href="#ArialMT-97"/>
       <use x="316.894531" xlink:href="#ArialMT-116"/>
       <use x="344.677734" xlink:href="#ArialMT-105"/>
       <use x="366.894531" xlink:href="#ArialMT-111"/>
       <use x="422.509766" xlink:href="#ArialMT-110"/>
      </g>
     </g>
    </g>
    <g id="text_16">
     <!-- Word -->
     <g style="fill:#262626;" transform="translate(562.196875 565.514375)scale(0.2 -0.2)">
      <defs>
       <path d="M 20.21875 0 
L 1.21875 71.578125 
L 10.9375 71.578125 
L 21.828125 24.65625 
Q 23.578125 17.28125 24.859375 10.015625 
Q 27.59375 21.484375 28.078125 23.25 
L 41.703125 71.578125 
L 53.125 71.578125 
L 63.375 35.359375 
Q 67.234375 21.875 68.953125 10.015625 
Q 70.3125 16.796875 72.515625 25.59375 
L 83.734375 71.578125 
L 93.265625 71.578125 
L 73.640625 0 
L 64.5 0 
L 49.421875 54.546875 
Q 47.515625 61.375 47.171875 62.9375 
Q 46.046875 58.015625 45.0625 54.546875 
L 29.890625 0 
z
" id="ArialMT-87"/>
      </defs>
      <use xlink:href="#ArialMT-87"/>
      <use x="92.634766" xlink:href="#ArialMT-111"/>
      <use x="148.25" xlink:href="#ArialMT-114"/>
      <use x="181.550781" xlink:href="#ArialMT-100"/>
     </g>
    </g>
   </g>
   <g id="matplotlib.axis_2">
    <g id="ytick_1">
     <g id="line2d_16">
      <defs>
       <path d="M 0 0 
L -6 0 
" id="m02ebdbd33f" style="stroke:#262626;stroke-width:0.8;"/>
      </defs>
      <g>
       <use style="fill:#262626;stroke:#262626;stroke-width:0.8;" x="83.7125" xlink:href="#m02ebdbd33f" y="442.08"/>
      </g>
     </g>
     <g id="text_17">
      <!-- 0 -->
      <g style="fill:#262626;" transform="translate(63.090625 449.237812)scale(0.2 -0.2)">
       <defs>
        <path d="M 4.15625 35.296875 
Q 4.15625 48 6.765625 55.734375 
Q 9.375 63.484375 14.515625 67.671875 
Q 19.671875 71.875 27.484375 71.875 
Q 33.25 71.875 37.59375 69.546875 
Q 41.9375 67.234375 44.765625 62.859375 
Q 47.609375 58.5 49.21875 52.21875 
Q 50.828125 45.953125 50.828125 35.296875 
Q 50.828125 22.703125 48.234375 14.96875 
Q 45.65625 7.234375 40.5 3 
Q 35.359375 -1.21875 27.484375 -1.21875 
Q 17.140625 -1.21875 11.234375 6.203125 
Q 4.15625 15.140625 4.15625 35.296875 
z
M 13.1875 35.296875 
Q 13.1875 17.671875 17.3125 11.828125 
Q 21.4375 6 27.484375 6 
Q 33.546875 6 37.671875 11.859375 
Q 41.796875 17.71875 41.796875 35.296875 
Q 41.796875 52.984375 37.671875 58.78125 
Q 33.546875 64.59375 27.390625 64.59375 
Q 21.34375 64.59375 17.71875 59.46875 
Q 13.1875 52.9375 13.1875 35.296875 
z
" id="ArialMT-48"/>
       </defs>
       <use xlink:href="#ArialMT-48"/>
      </g>
     </g>
    </g>
    <g id="ytick_2">
     <g id="line2d_17">
      <g>
       <use style="fill:#262626;stroke:#262626;stroke-width:0.8;" x="83.7125" xlink:href="#m02ebdbd33f" y="357.555219"/>
      </g>
     </g>
     <g id="text_18">
      <!-- 200 -->
      <g style="fill:#262626;" transform="translate(40.846875 364.713031)scale(0.2 -0.2)">
       <defs>
        <path d="M 50.34375 8.453125 
L 50.34375 0 
L 3.03125 0 
Q 2.9375 3.171875 4.046875 6.109375 
Q 5.859375 10.9375 9.828125 15.625 
Q 13.8125 20.3125 21.34375 26.46875 
Q 33.015625 36.03125 37.109375 41.625 
Q 41.21875 47.21875 41.21875 52.203125 
Q 41.21875 57.421875 37.46875 61 
Q 33.734375 64.59375 27.734375 64.59375 
Q 21.390625 64.59375 17.578125 60.78125 
Q 13.765625 56.984375 13.71875 50.25 
L 4.6875 51.171875 
Q 5.609375 61.28125 11.65625 66.578125 
Q 17.71875 71.875 27.9375 71.875 
Q 38.234375 71.875 44.234375 66.15625 
Q 50.25 60.453125 50.25 52 
Q 50.25 47.703125 48.484375 43.546875 
Q 46.734375 39.40625 42.65625 34.8125 
Q 38.578125 30.21875 29.109375 22.21875 
Q 21.1875 15.578125 18.9375 13.203125 
Q 16.703125 10.84375 15.234375 8.453125 
z
" id="ArialMT-50"/>
       </defs>
       <use xlink:href="#ArialMT-50"/>
       <use x="55.615234" xlink:href="#ArialMT-48"/>
       <use x="111.230469" xlink:href="#ArialMT-48"/>
      </g>
     </g>
    </g>
    <g id="ytick_3">
     <g id="line2d_18">
      <g>
       <use style="fill:#262626;stroke:#262626;stroke-width:0.8;" x="83.7125" xlink:href="#m02ebdbd33f" y="273.030437"/>
      </g>
     </g>
     <g id="text_19">
      <!-- 400 -->
      <g style="fill:#262626;" transform="translate(40.846875 280.18825)scale(0.2 -0.2)">
       <defs>
        <path d="M 32.328125 0 
L 32.328125 17.140625 
L 1.265625 17.140625 
L 1.265625 25.203125 
L 33.9375 71.578125 
L 41.109375 71.578125 
L 41.109375 25.203125 
L 50.78125 25.203125 
L 50.78125 17.140625 
L 41.109375 17.140625 
L 41.109375 0 
z
M 32.328125 25.203125 
L 32.328125 57.46875 
L 9.90625 25.203125 
z
" id="ArialMT-52"/>
       </defs>
       <use xlink:href="#ArialMT-52"/>
       <use x="55.615234" xlink:href="#ArialMT-48"/>
       <use x="111.230469" xlink:href="#ArialMT-48"/>
      </g>
     </g>
    </g>
    <g id="ytick_4">
     <g id="line2d_19">
      <g>
       <use style="fill:#262626;stroke:#262626;stroke-width:0.8;" x="83.7125" xlink:href="#m02ebdbd33f" y="188.505656"/>
      </g>
     </g>
     <g id="text_20">
      <!-- 600 -->
      <g style="fill:#262626;" transform="translate(40.846875 195.663468)scale(0.2 -0.2)">
       <defs>
        <path d="M 49.75 54.046875 
L 41.015625 53.375 
Q 39.84375 58.546875 37.703125 60.890625 
Q 34.125 64.65625 28.90625 64.65625 
Q 24.703125 64.65625 21.53125 62.3125 
Q 17.390625 59.28125 14.984375 53.46875 
Q 12.59375 47.65625 12.5 36.921875 
Q 15.671875 41.75 20.265625 44.09375 
Q 24.859375 46.4375 29.890625 46.4375 
Q 38.671875 46.4375 44.84375 39.96875 
Q 51.03125 33.5 51.03125 23.25 
Q 51.03125 16.5 48.125 10.71875 
Q 45.21875 4.9375 40.140625 1.859375 
Q 35.0625 -1.21875 28.609375 -1.21875 
Q 17.625 -1.21875 10.6875 6.859375 
Q 3.765625 14.9375 3.765625 33.5 
Q 3.765625 54.25 11.421875 63.671875 
Q 18.109375 71.875 29.4375 71.875 
Q 37.890625 71.875 43.28125 67.140625 
Q 48.6875 62.40625 49.75 54.046875 
z
M 13.875 23.1875 
Q 13.875 18.65625 15.796875 14.5 
Q 17.71875 10.359375 21.1875 8.171875 
Q 24.65625 6 28.46875 6 
Q 34.03125 6 38.03125 10.484375 
Q 42.046875 14.984375 42.046875 22.703125 
Q 42.046875 30.125 38.078125 34.390625 
Q 34.125 38.671875 28.125 38.671875 
Q 22.171875 38.671875 18.015625 34.390625 
Q 13.875 30.125 13.875 23.1875 
z
" id="ArialMT-54"/>
       </defs>
       <use xlink:href="#ArialMT-54"/>
       <use x="55.615234" xlink:href="#ArialMT-48"/>
       <use x="111.230469" xlink:href="#ArialMT-48"/>
      </g>
     </g>
    </g>
    <g id="ytick_5">
     <g id="line2d_20">
      <g>
       <use style="fill:#262626;stroke:#262626;stroke-width:0.8;" x="83.7125" xlink:href="#m02ebdbd33f" y="103.980875"/>
      </g>
     </g>
     <g id="text_21">
      <!-- 800 -->
      <g style="fill:#262626;" transform="translate(40.846875 111.138687)scale(0.2 -0.2)">
       <defs>
        <path d="M 17.671875 38.8125 
Q 12.203125 40.828125 9.5625 44.53125 
Q 6.9375 48.25 6.9375 53.421875 
Q 6.9375 61.234375 12.546875 66.546875 
Q 18.171875 71.875 27.484375 71.875 
Q 36.859375 71.875 42.578125 66.421875 
Q 48.296875 60.984375 48.296875 53.171875 
Q 48.296875 48.1875 45.671875 44.5 
Q 43.0625 40.828125 37.75 38.8125 
Q 44.34375 36.671875 47.78125 31.875 
Q 51.21875 27.09375 51.21875 20.453125 
Q 51.21875 11.28125 44.71875 5.03125 
Q 38.234375 -1.21875 27.640625 -1.21875 
Q 17.046875 -1.21875 10.546875 5.046875 
Q 4.046875 11.328125 4.046875 20.703125 
Q 4.046875 27.6875 7.59375 32.390625 
Q 11.140625 37.109375 17.671875 38.8125 
z
M 15.921875 53.71875 
Q 15.921875 48.640625 19.1875 45.40625 
Q 22.46875 42.1875 27.6875 42.1875 
Q 32.765625 42.1875 36.015625 45.375 
Q 39.265625 48.578125 39.265625 53.21875 
Q 39.265625 58.0625 35.90625 61.359375 
Q 32.5625 64.65625 27.59375 64.65625 
Q 22.5625 64.65625 19.234375 61.421875 
Q 15.921875 58.203125 15.921875 53.71875 
z
M 13.09375 20.65625 
Q 13.09375 16.890625 14.875 13.375 
Q 16.65625 9.859375 20.171875 7.921875 
Q 23.6875 6 27.734375 6 
Q 34.03125 6 38.125 10.046875 
Q 42.234375 14.109375 42.234375 20.359375 
Q 42.234375 26.703125 38.015625 30.859375 
Q 33.796875 35.015625 27.4375 35.015625 
Q 21.234375 35.015625 17.15625 30.90625 
Q 13.09375 26.8125 13.09375 20.65625 
z
" id="ArialMT-56"/>
       </defs>
       <use xlink:href="#ArialMT-56"/>
       <use x="55.615234" xlink:href="#ArialMT-48"/>
       <use x="111.230469" xlink:href="#ArialMT-48"/>
      </g>
     </g>
    </g>
    <g id="ytick_6">
     <g id="line2d_21">
      <g>
       <use style="fill:#262626;stroke:#262626;stroke-width:0.8;" x="83.7125" xlink:href="#m02ebdbd33f" y="19.456093"/>
      </g>
     </g>
     <g id="text_22">
      <!-- 1000 -->
      <g style="fill:#262626;" transform="translate(29.725 26.613906)scale(0.2 -0.2)">
       <defs>
        <path d="M 37.25 0 
L 28.46875 0 
L 28.46875 56 
Q 25.296875 52.984375 20.140625 49.953125 
Q 14.984375 46.921875 10.890625 45.40625 
L 10.890625 53.90625 
Q 18.265625 57.375 23.78125 62.296875 
Q 29.296875 67.234375 31.59375 71.875 
L 37.25 71.875 
z
" id="ArialMT-49"/>
       </defs>
       <use xlink:href="#ArialMT-49"/>
       <use x="55.615234" xlink:href="#ArialMT-48"/>
       <use x="111.230469" xlink:href="#ArialMT-48"/>
       <use x="166.845703" xlink:href="#ArialMT-48"/>
      </g>
     </g>
    </g>
    <g id="text_23">
     <!-- Frequency -->
     <g style="fill:#262626;" transform="translate(21.515625 271.882187)rotate(-90)scale(0.2 -0.2)">
      <defs>
       <path d="M 8.203125 0 
L 8.203125 71.578125 
L 56.5 71.578125 
L 56.5 63.140625 
L 17.671875 63.140625 
L 17.671875 40.96875 
L 51.265625 40.96875 
L 51.265625 32.515625 
L 17.671875 32.515625 
L 17.671875 0 
z
" id="ArialMT-70"/>
       <path d="M 39.65625 -19.875 
L 39.65625 5.515625 
Q 37.59375 2.640625 33.90625 0.734375 
Q 30.21875 -1.171875 26.078125 -1.171875 
Q 16.84375 -1.171875 10.171875 6.203125 
Q 3.515625 13.578125 3.515625 26.421875 
Q 3.515625 34.234375 6.21875 40.421875 
Q 8.9375 46.625 14.078125 49.828125 
Q 19.234375 53.03125 25.390625 53.03125 
Q 35.015625 53.03125 40.53125 44.921875 
L 40.53125 51.859375 
L 48.4375 51.859375 
L 48.4375 -19.875 
z
M 12.546875 26.078125 
Q 12.546875 16.0625 16.75 11.0625 
Q 20.953125 6.0625 26.8125 6.0625 
Q 32.421875 6.0625 36.46875 10.8125 
Q 40.53125 15.578125 40.53125 25.296875 
Q 40.53125 35.640625 36.25 40.859375 
Q 31.984375 46.09375 26.21875 46.09375 
Q 20.515625 46.09375 16.53125 41.234375 
Q 12.546875 36.375 12.546875 26.078125 
z
" id="ArialMT-113"/>
      </defs>
      <use xlink:href="#ArialMT-70"/>
      <use x="61.083984" xlink:href="#ArialMT-114"/>
      <use x="94.384766" xlink:href="#ArialMT-101"/>
      <use x="150" xlink:href="#ArialMT-113"/>
      <use x="205.615234" xlink:href="#ArialMT-117"/>
      <use x="261.230469" xlink:href="#ArialMT-101"/>
      <use x="316.845703" xlink:href="#ArialMT-110"/>
      <use x="372.460938" xlink:href="#ArialMT-99"/>
      <use x="422.460938" xlink:href="#ArialMT-121"/>
     </g>
    </g>
   </g>
   <g id="patch_3">
    <path clip-path="url(#pb4e948aef6)" d="M 100.4525 442.08 
L 133.9325 442.08 
L 133.9325 361.781458 
L 100.4525 361.781458 
z
" style="fill:#1f77b4;"/>
   </g>
   <g id="patch_4">
    <path clip-path="url(#pb4e948aef6)" d="M 167.4125 442.08 
L 200.8925 442.08 
L 200.8925 388.406764 
L 167.4125 388.406764 
z
" style="fill:#1f77b4;"/>
   </g>
   <g id="patch_5">
    <path clip-path="url(#pb4e948aef6)" d="M 234.3725 442.08 
L 267.8525 442.08 
L 267.8525 421.371429 
L 234.3725 421.371429 
z
" style="fill:#1f77b4;"/>
   </g>
   <g id="patch_6">
    <path clip-path="url(#pb4e948aef6)" d="M 301.3325 442.08 
L 334.8125 442.08 
L 334.8125 423.061924 
L 301.3325 423.061924 
z
" style="fill:#1f77b4;"/>
   </g>
   <g id="patch_7">
    <path clip-path="url(#pb4e948aef6)" d="M 368.2925 442.08 
L 401.7725 442.08 
L 401.7725 441.234752 
L 368.2925 441.234752 
z
" style="fill:#1f77b4;"/>
   </g>
   <g id="patch_8">
    <path clip-path="url(#pb4e948aef6)" d="M 435.2525 442.08 
L 468.7325 442.08 
L 468.7325 416.722566 
L 435.2525 416.722566 
z
" style="fill:#1f77b4;"/>
   </g>
   <g id="patch_9">
    <path clip-path="url(#pb4e948aef6)" d="M 502.2125 442.08 
L 535.6925 442.08 
L 535.6925 442.08 
L 502.2125 442.08 
z
" style="fill:#1f77b4;"/>
   </g>
   <g id="patch_10">
    <path clip-path="url(#pb4e948aef6)" d="M 569.1725 442.08 
L 602.6525 442.08 
L 602.6525 428.978659 
L 569.1725 428.978659 
z
" style="fill:#1f77b4;"/>
   </g>
   <g id="patch_11">
    <path clip-path="url(#pb4e948aef6)" d="M 636.1325 442.08 
L 669.6125 442.08 
L 669.6125 382.490029 
L 636.1325 382.490029 
z
" style="fill:#1f77b4;"/>
   </g>
   <g id="patch_12">
    <path clip-path="url(#pb4e948aef6)" d="M 703.0925 442.08 
L 736.5725 442.08 
L 736.5725 412.496327 
L 703.0925 412.496327 
z
" style="fill:#1f77b4;"/>
   </g>
   <g id="patch_13">
    <path clip-path="url(#pb4e948aef6)" d="M 770.0525 442.08 
L 803.5325 442.08 
L 803.5325 426.442915 
L 770.0525 426.442915 
z
" style="fill:#1f77b4;"/>
   </g>
   <g id="patch_14">
    <path clip-path="url(#pb4e948aef6)" d="M 837.0125 442.08 
L 870.4925 442.08 
L 870.4925 439.96688 
L 837.0125 439.96688 
z
" style="fill:#1f77b4;"/>
   </g>
   <g id="patch_15">
    <path clip-path="url(#pb4e948aef6)" d="M 903.9725 442.08 
L 937.4525 442.08 
L 937.4525 382.067405 
L 903.9725 382.067405 
z
" style="fill:#1f77b4;"/>
   </g>
   <g id="patch_16">
    <path clip-path="url(#pb4e948aef6)" d="M 970.9325 442.08 
L 1004.4125 442.08 
L 1004.4125 428.556035 
L 970.9325 428.556035 
z
" style="fill:#1f77b4;"/>
   </g>
   <g id="patch_17">
    <path clip-path="url(#pb4e948aef6)" d="M 1037.8925 442.08 
L 1071.3725 442.08 
L 1071.3725 433.204898 
L 1037.8925 433.204898 
z
" style="fill:#1f77b4;"/>
   </g>
   <g id="patch_18">
    <path clip-path="url(#pb4e948aef6)" d="M 100.4525 361.781458 
L 133.9325 361.781458 
L 133.9325 250.208746 
L 100.4525 250.208746 
z
" style="fill:#ff7f0e;"/>
   </g>
   <g id="patch_19">
    <path clip-path="url(#pb4e948aef6)" d="M 167.4125 388.406764 
L 200.8925 388.406764 
L 200.8925 352.061108 
L 167.4125 352.061108 
z
" style="fill:#ff7f0e;"/>
   </g>
   <g id="patch_20">
    <path clip-path="url(#pb4e948aef6)" d="M 234.3725 421.371429 
L 267.8525 421.371429 
L 267.8525 405.734344 
L 234.3725 405.734344 
z
" style="fill:#ff7f0e;"/>
   </g>
   <g id="patch_21">
    <path clip-path="url(#pb4e948aef6)" d="M 301.3325 423.061924 
L 334.8125 423.061924 
L 334.8125 407.002216 
L 301.3325 407.002216 
z
" style="fill:#ff7f0e;"/>
   </g>
   <g id="patch_22">
    <path clip-path="url(#pb4e948aef6)" d="M 368.2925 442.08 
L 401.7725 442.08 
L 401.7725 442.08 
L 368.2925 442.08 
z
" style="fill:#ff7f0e;"/>
   </g>
   <g id="patch_23">
    <path clip-path="url(#pb4e948aef6)" d="M 435.2525 416.722566 
L 468.7325 416.722566 
L 468.7325 394.746122 
L 435.2525 394.746122 
z
" style="fill:#ff7f0e;"/>
   </g>
   <g id="patch_24">
    <path clip-path="url(#pb4e948aef6)" d="M 502.2125 442.08 
L 535.6925 442.08 
L 535.6925 442.08 
L 502.2125 442.08 
z
" style="fill:#ff7f0e;"/>
   </g>
   <g id="patch_25">
    <path clip-path="url(#pb4e948aef6)" d="M 569.1725 428.978659 
L 602.6525 428.978659 
L 602.6525 418.413061 
L 569.1725 418.413061 
z
" style="fill:#ff7f0e;"/>
   </g>
   <g id="patch_26">
    <path clip-path="url(#pb4e948aef6)" d="M 636.1325 382.490029 
L 669.6125 382.490029 
L 669.6125 320.786939 
L 636.1325 320.786939 
z
" style="fill:#ff7f0e;"/>
   </g>
   <g id="patch_27">
    <path clip-path="url(#pb4e948aef6)" d="M 703.0925 412.496327 
L 736.5725 412.496327 
L 736.5725 392.210379 
L 703.0925 392.210379 
z
" style="fill:#ff7f0e;"/>
   </g>
   <g id="patch_28">
    <path clip-path="url(#pb4e948aef6)" d="M 770.0525 426.442915 
L 803.5325 426.442915 
L 803.5325 412.496327 
L 770.0525 412.496327 
z
" style="fill:#ff7f0e;"/>
   </g>
   <g id="patch_29">
    <path clip-path="url(#pb4e948aef6)" d="M 837.0125 439.96688 
L 870.4925 439.96688 
L 870.4925 439.121633 
L 837.0125 439.121633 
z
" style="fill:#ff7f0e;"/>
   </g>
   <g id="patch_30">
    <path clip-path="url(#pb4e948aef6)" d="M 903.9725 382.067405 
L 937.4525 382.067405 
L 937.4525 334.310904 
L 903.9725 334.310904 
z
" style="fill:#ff7f0e;"/>
   </g>
   <g id="patch_31">
    <path clip-path="url(#pb4e948aef6)" d="M 970.9325 428.556035 
L 1004.4125 428.556035 
L 1004.4125 415.454694 
L 970.9325 415.454694 
z
" style="fill:#ff7f0e;"/>
   </g>
   <g id="patch_32">
    <path clip-path="url(#pb4e948aef6)" d="M 1037.8925 433.204898 
L 1071.3725 433.204898 
L 1071.3725 424.75242 
L 1037.8925 424.75242 
z
" style="fill:#ff7f0e;"/>
   </g>
   <g id="patch_33">
    <path clip-path="url(#pb4e948aef6)" d="M 100.4525 250.208746 
L 133.9325 250.208746 
L 133.9325 220.202449 
L 100.4525 220.202449 
z
" style="fill:#2ca02c;"/>
   </g>
   <g id="patch_34">
    <path clip-path="url(#pb4e948aef6)" d="M 167.4125 352.061108 
L 200.8925 352.061108 
L 200.8925 325.013178 
L 167.4125 325.013178 
z
" style="fill:#2ca02c;"/>
   </g>
   <g id="patch_35">
    <path clip-path="url(#pb4e948aef6)" d="M 234.3725 405.734344 
L 267.8525 405.734344 
L 267.8525 385.025773 
L 234.3725 385.025773 
z
" style="fill:#2ca02c;"/>
   </g>
   <g id="patch_36">
    <path clip-path="url(#pb4e948aef6)" d="M 301.3325 407.002216 
L 334.8125 407.002216 
L 334.8125 383.335277 
L 301.3325 383.335277 
z
" style="fill:#2ca02c;"/>
   </g>
   <g id="patch_37">
    <path clip-path="url(#pb4e948aef6)" d="M 368.2925 441.234752 
L 401.7725 441.234752 
L 401.7725 420.526181 
L 368.2925 420.526181 
z
" style="fill:#2ca02c;"/>
   </g>
   <g id="patch_38">
    <path clip-path="url(#pb4e948aef6)" d="M 435.2525 394.746122 
L 468.7325 394.746122 
L 468.7325 371.924431 
L 435.2525 371.924431 
z
" style="fill:#2ca02c;"/>
   </g>
   <g id="patch_39">
    <path clip-path="url(#pb4e948aef6)" d="M 502.2125 442.08 
L 535.6925 442.08 
L 535.6925 440.812128 
L 502.2125 440.812128 
z
" style="fill:#2ca02c;"/>
   </g>
   <g id="patch_40">
    <path clip-path="url(#pb4e948aef6)" d="M 569.1725 418.413061 
L 602.6525 418.413061 
L 602.6525 409.537959 
L 569.1725 409.537959 
z
" style="fill:#2ca02c;"/>
   </g>
   <g id="patch_41">
    <path clip-path="url(#pb4e948aef6)" d="M 636.1325 320.786939 
L 669.6125 320.786939 
L 669.6125 283.596035 
L 636.1325 283.596035 
z
" style="fill:#2ca02c;"/>
   </g>
   <g id="patch_42">
    <path clip-path="url(#pb4e948aef6)" d="M 703.0925 392.210379 
L 736.5725 392.210379 
L 736.5725 368.120816 
L 703.0925 368.120816 
z
" style="fill:#2ca02c;"/>
   </g>
   <g id="patch_43">
    <path clip-path="url(#pb4e948aef6)" d="M 770.0525 412.496327 
L 803.5325 412.496327 
L 803.5325 371.079184 
L 770.0525 371.079184 
z
" style="fill:#2ca02c;"/>
   </g>
   <g id="patch_44">
    <path clip-path="url(#pb4e948aef6)" d="M 837.0125 439.121633 
L 870.4925 439.121633 
L 870.4925 434.050146 
L 837.0125 434.050146 
z
" style="fill:#2ca02c;"/>
   </g>
   <g id="patch_45">
    <path clip-path="url(#pb4e948aef6)" d="M 903.9725 334.310904 
L 937.4525 334.310904 
L 937.4525 324.16793 
L 903.9725 324.16793 
z
" style="fill:#2ca02c;"/>
   </g>
   <g id="patch_46">
    <path clip-path="url(#pb4e948aef6)" d="M 970.9325 415.454694 
L 1004.4125 415.454694 
L 1004.4125 401.085481 
L 970.9325 401.085481 
z
" style="fill:#2ca02c;"/>
   </g>
   <g id="patch_47">
    <path clip-path="url(#pb4e948aef6)" d="M 1037.8925 424.75242 
L 1071.3725 424.75242 
L 1071.3725 403.621224 
L 1037.8925 403.621224 
z
" style="fill:#2ca02c;"/>
   </g>
   <g id="patch_48">
    <path clip-path="url(#pb4e948aef6)" d="M 100.4525 220.202449 
L 133.9325 220.202449 
L 133.9325 146.665889 
L 100.4525 146.665889 
z
" style="fill:#d62728;"/>
   </g>
   <g id="patch_49">
    <path clip-path="url(#pb4e948aef6)" d="M 167.4125 325.013178 
L 200.8925 325.013178 
L 200.8925 320.364315 
L 167.4125 320.364315 
z
" style="fill:#d62728;"/>
   </g>
   <g id="patch_50">
    <path clip-path="url(#pb4e948aef6)" d="M 234.3725 385.025773 
L 267.8525 385.025773 
L 267.8525 340.227638 
L 234.3725 340.227638 
z
" style="fill:#d62728;"/>
   </g>
   <g id="patch_51">
    <path clip-path="url(#pb4e948aef6)" d="M 301.3325 383.335277 
L 334.8125 383.335277 
L 334.8125 376.573294 
L 301.3325 376.573294 
z
" style="fill:#d62728;"/>
   </g>
   <g id="patch_52">
    <path clip-path="url(#pb4e948aef6)" d="M 368.2925 420.526181 
L 401.7725 420.526181 
L 401.7725 395.168746 
L 368.2925 395.168746 
z
" style="fill:#d62728;"/>
   </g>
   <g id="patch_53">
    <path clip-path="url(#pb4e948aef6)" d="M 435.2525 371.924431 
L 468.7325 371.924431 
L 468.7325 357.132595 
L 435.2525 357.132595 
z
" style="fill:#d62728;"/>
   </g>
   <g id="patch_54">
    <path clip-path="url(#pb4e948aef6)" d="M 502.2125 440.812128 
L 535.6925 440.812128 
L 535.6925 438.699009 
L 502.2125 438.699009 
z
" style="fill:#d62728;"/>
   </g>
   <g id="patch_55">
    <path clip-path="url(#pb4e948aef6)" d="M 569.1725 409.537959 
L 602.6525 409.537959 
L 602.6525 387.98414 
L 569.1725 387.98414 
z
" style="fill:#d62728;"/>
   </g>
   <g id="patch_56">
    <path clip-path="url(#pb4e948aef6)" d="M 636.1325 283.596035 
L 669.6125 283.596035 
L 669.6125 245.559883 
L 636.1325 245.559883 
z
" style="fill:#d62728;"/>
   </g>
   <g id="patch_57">
    <path clip-path="url(#pb4e948aef6)" d="M 703.0925 368.120816 
L 736.5725 368.120816 
L 736.5725 360.93621 
L 703.0925 360.93621 
z
" style="fill:#d62728;"/>
   </g>
   <g id="patch_58">
    <path clip-path="url(#pb4e948aef6)" d="M 770.0525 371.079184 
L 803.5325 371.079184 
L 803.5325 369.388688 
L 770.0525 369.388688 
z
" style="fill:#d62728;"/>
   </g>
   <g id="patch_59">
    <path clip-path="url(#pb4e948aef6)" d="M 837.0125 434.050146 
L 870.4925 434.050146 
L 870.4925 354.174227 
L 837.0125 354.174227 
z
" style="fill:#d62728;"/>
   </g>
   <g id="patch_60">
    <path clip-path="url(#pb4e948aef6)" d="M 903.9725 324.16793 
L 937.4525 324.16793 
L 937.4525 323.322682 
L 903.9725 323.322682 
z
" style="fill:#d62728;"/>
   </g>
   <g id="patch_61">
    <path clip-path="url(#pb4e948aef6)" d="M 970.9325 401.085481 
L 1004.4125 401.085481 
L 1004.4125 391.365131 
L 970.9325 391.365131 
z
" style="fill:#d62728;"/>
   </g>
   <g id="patch_62">
    <path clip-path="url(#pb4e948aef6)" d="M 1037.8925 403.621224 
L 1071.3725 403.621224 
L 1071.3725 397.70449 
L 1037.8925 397.70449 
z
" style="fill:#d62728;"/>
   </g>
   <g id="patch_63">
    <path clip-path="url(#pb4e948aef6)" d="M 100.4525 146.665889 
L 133.9325 146.665889 
L 133.9325 133.987172 
L 100.4525 133.987172 
z
" style="fill:#9467bd;"/>
   </g>
   <g id="patch_64">
    <path clip-path="url(#pb4e948aef6)" d="M 167.4125 320.364315 
L 200.8925 320.364315 
L 200.8925 315.292828 
L 167.4125 315.292828 
z
" style="fill:#9467bd;"/>
   </g>
   <g id="patch_65">
    <path clip-path="url(#pb4e948aef6)" d="M 234.3725 340.227638 
L 267.8525 340.227638 
L 267.8525 309.798717 
L 234.3725 309.798717 
z
" style="fill:#9467bd;"/>
   </g>
   <g id="patch_66">
    <path clip-path="url(#pb4e948aef6)" d="M 301.3325 376.573294 
L 334.8125 376.573294 
L 334.8125 370.65656 
L 301.3325 370.65656 
z
" style="fill:#9467bd;"/>
   </g>
   <g id="patch_67">
    <path clip-path="url(#pb4e948aef6)" d="M 368.2925 395.168746 
L 401.7725 395.168746 
L 401.7725 269.226822 
L 368.2925 269.226822 
z
" style="fill:#9467bd;"/>
   </g>
   <g id="patch_68">
    <path clip-path="url(#pb4e948aef6)" d="M 435.2525 357.132595 
L 468.7325 357.132595 
L 468.7325 342.763382 
L 435.2525 342.763382 
z
" style="fill:#9467bd;"/>
   </g>
   <g id="patch_69">
    <path clip-path="url(#pb4e948aef6)" d="M 502.2125 438.699009 
L 535.6925 438.699009 
L 535.6925 438.276385 
L 502.2125 438.276385 
z
" style="fill:#9467bd;"/>
   </g>
   <g id="patch_70">
    <path clip-path="url(#pb4e948aef6)" d="M 569.1725 387.98414 
L 602.6525 387.98414 
L 602.6525 374.460175 
L 569.1725 374.460175 
z
" style="fill:#9467bd;"/>
   </g>
   <g id="patch_71">
    <path clip-path="url(#pb4e948aef6)" d="M 636.1325 245.559883 
L 669.6125 245.559883 
L 669.6125 196.112886 
L 636.1325 196.112886 
z
" style="fill:#9467bd;"/>
   </g>
   <g id="patch_72">
    <path clip-path="url(#pb4e948aef6)" d="M 703.0925 360.93621 
L 736.5725 360.93621 
L 736.5725 350.793236 
L 703.0925 350.793236 
z
" style="fill:#9467bd;"/>
   </g>
   <g id="patch_73">
    <path clip-path="url(#pb4e948aef6)" d="M 770.0525 369.388688 
L 803.5325 369.388688 
L 803.5325 362.204082 
L 770.0525 362.204082 
z
" style="fill:#9467bd;"/>
   </g>
   <g id="patch_74">
    <path clip-path="url(#pb4e948aef6)" d="M 837.0125 354.174227 
L 870.4925 354.174227 
L 870.4925 347.834869 
L 837.0125 347.834869 
z
" style="fill:#9467bd;"/>
   </g>
   <g id="patch_75">
    <path clip-path="url(#pb4e948aef6)" d="M 903.9725 323.322682 
L 937.4525 323.322682 
L 937.4525 315.292828 
L 903.9725 315.292828 
z
" style="fill:#9467bd;"/>
   </g>
   <g id="patch_76">
    <path clip-path="url(#pb4e948aef6)" d="M 970.9325 391.365131 
L 1004.4125 391.365131 
L 1004.4125 366.852945 
L 970.9325 366.852945 
z
" style="fill:#9467bd;"/>
   </g>
   <g id="patch_77">
    <path clip-path="url(#pb4e948aef6)" d="M 1037.8925 397.70449 
L 1071.3725 397.70449 
L 1071.3725 382.067405 
L 1037.8925 382.067405 
z
" style="fill:#9467bd;"/>
   </g>
   <g id="patch_78">
    <path clip-path="url(#pb4e948aef6)" d="M 100.4525 133.987172 
L 133.9325 133.987172 
L 133.9325 90.879534 
L 100.4525 90.879534 
z
" style="fill:#8c564b;"/>
   </g>
   <g id="patch_79">
    <path clip-path="url(#pb4e948aef6)" d="M 167.4125 315.292828 
L 200.8925 315.292828 
L 200.8925 219.357201 
L 167.4125 219.357201 
z
" style="fill:#8c564b;"/>
   </g>
   <g id="patch_80">
    <path clip-path="url(#pb4e948aef6)" d="M 234.3725 309.798717 
L 267.8525 309.798717 
L 267.8525 257.393353 
L 234.3725 257.393353 
z
" style="fill:#8c564b;"/>
   </g>
   <g id="patch_81">
    <path clip-path="url(#pb4e948aef6)" d="M 301.3325 370.65656 
L 334.8125 370.65656 
L 334.8125 225.69656 
L 301.3325 225.69656 
z
" style="fill:#8c564b;"/>
   </g>
   <g id="patch_82">
    <path clip-path="url(#pb4e948aef6)" d="M 368.2925 269.226822 
L 401.7725 269.226822 
L 401.7725 268.804198 
L 368.2925 268.804198 
z
" style="fill:#8c564b;"/>
   </g>
   <g id="patch_83">
    <path clip-path="url(#pb4e948aef6)" d="M 435.2525 342.763382 
L 468.7325 342.763382 
L 468.7325 319.096443 
L 435.2525 319.096443 
z
" style="fill:#8c564b;"/>
   </g>
   <g id="patch_84">
    <path clip-path="url(#pb4e948aef6)" d="M 502.2125 438.276385 
L 535.6925 438.276385 
L 535.6925 429.823907 
L 502.2125 429.823907 
z
" style="fill:#8c564b;"/>
   </g>
   <g id="patch_85">
    <path clip-path="url(#pb4e948aef6)" d="M 569.1725 374.460175 
L 602.6525 374.460175 
L 602.6525 363.471953 
L 569.1725 363.471953 
z
" style="fill:#8c564b;"/>
   </g>
   <g id="patch_86">
    <path clip-path="url(#pb4e948aef6)" d="M 636.1325 196.112886 
L 669.6125 196.112886 
L 669.6125 172.023324 
L 636.1325 172.023324 
z
" style="fill:#8c564b;"/>
   </g>
   <g id="patch_87">
    <path clip-path="url(#pb4e948aef6)" d="M 703.0925 350.793236 
L 736.5725 350.793236 
L 736.5725 312.757085 
L 703.0925 312.757085 
z
" style="fill:#8c564b;"/>
   </g>
   <g id="patch_88">
    <path clip-path="url(#pb4e948aef6)" d="M 770.0525 362.204082 
L 803.5325 362.204082 
L 803.5325 340.650262 
L 770.0525 340.650262 
z
" style="fill:#8c564b;"/>
   </g>
   <g id="patch_89">
    <path clip-path="url(#pb4e948aef6)" d="M 837.0125 347.834869 
L 870.4925 347.834869 
L 870.4925 342.340758 
L 837.0125 342.340758 
z
" style="fill:#8c564b;"/>
   </g>
   <g id="patch_90">
    <path clip-path="url(#pb4e948aef6)" d="M 903.9725 315.292828 
L 937.4525 315.292828 
L 937.4525 311.911837 
L 903.9725 311.911837 
z
" style="fill:#8c564b;"/>
   </g>
   <g id="patch_91">
    <path clip-path="url(#pb4e948aef6)" d="M 970.9325 366.852945 
L 1004.4125 366.852945 
L 1004.4125 362.204082 
L 970.9325 362.204082 
z
" style="fill:#8c564b;"/>
   </g>
   <g id="patch_92">
    <path clip-path="url(#pb4e948aef6)" d="M 1037.8925 382.067405 
L 1071.3725 382.067405 
L 1071.3725 367.275569 
L 1037.8925 367.275569 
z
" style="fill:#8c564b;"/>
   </g>
   <g id="patch_93">
    <path clip-path="url(#pb4e948aef6)" d="M 100.4525 90.879534 
L 133.9325 90.879534 
L 133.9325 73.551953 
L 100.4525 73.551953 
z
" style="fill:#e377c2;"/>
   </g>
   <g id="patch_94">
    <path clip-path="url(#pb4e948aef6)" d="M 167.4125 219.357201 
L 200.8925 219.357201 
L 200.8925 208.791603 
L 167.4125 208.791603 
z
" style="fill:#e377c2;"/>
   </g>
   <g id="patch_95">
    <path clip-path="url(#pb4e948aef6)" d="M 234.3725 257.393353 
L 267.8525 257.393353 
L 267.8525 200.761749 
L 234.3725 200.761749 
z
" style="fill:#e377c2;"/>
   </g>
   <g id="patch_96">
    <path clip-path="url(#pb4e948aef6)" d="M 301.3325 225.69656 
L 334.8125 225.69656 
L 334.8125 223.58344 
L 301.3325 223.58344 
z
" style="fill:#e377c2;"/>
   </g>
   <g id="patch_97">
    <path clip-path="url(#pb4e948aef6)" d="M 368.2925 268.804198 
L 401.7725 268.804198 
L 401.7725 267.536327 
L 368.2925 267.536327 
z
" style="fill:#e377c2;"/>
   </g>
   <g id="patch_98">
    <path clip-path="url(#pb4e948aef6)" d="M 435.2525 319.096443 
L 468.7325 319.096443 
L 468.7325 304.72723 
L 435.2525 304.72723 
z
" style="fill:#e377c2;"/>
   </g>
   <g id="patch_99">
    <path clip-path="url(#pb4e948aef6)" d="M 502.2125 429.823907 
L 535.6925 429.823907 
L 535.6925 425.175044 
L 502.2125 425.175044 
z
" style="fill:#e377c2;"/>
   </g>
   <g id="patch_100">
    <path clip-path="url(#pb4e948aef6)" d="M 569.1725 363.471953 
L 602.6525 363.471953 
L 602.6525 351.21586 
L 569.1725 351.21586 
z
" style="fill:#e377c2;"/>
   </g>
   <g id="patch_101">
    <path clip-path="url(#pb4e948aef6)" d="M 636.1325 172.023324 
L 669.6125 172.023324 
L 669.6125 144.130146 
L 636.1325 144.130146 
z
" style="fill:#e377c2;"/>
   </g>
   <g id="patch_102">
    <path clip-path="url(#pb4e948aef6)" d="M 703.0925 312.757085 
L 736.5725 312.757085 
L 736.5725 302.191487 
L 703.0925 302.191487 
z
" style="fill:#e377c2;"/>
   </g>
   <g id="patch_103">
    <path clip-path="url(#pb4e948aef6)" d="M 770.0525 340.650262 
L 803.5325 340.650262 
L 803.5325 338.959767 
L 770.0525 338.959767 
z
" style="fill:#e377c2;"/>
   </g>
   <g id="patch_104">
    <path clip-path="url(#pb4e948aef6)" d="M 837.0125 342.340758 
L 870.4925 342.340758 
L 870.4925 333.88828 
L 837.0125 333.88828 
z
" style="fill:#e377c2;"/>
   </g>
   <g id="patch_105">
    <path clip-path="url(#pb4e948aef6)" d="M 903.9725 311.911837 
L 937.4525 311.911837 
L 937.4525 307.685598 
L 903.9725 307.685598 
z
" style="fill:#e377c2;"/>
   </g>
   <g id="patch_106">
    <path clip-path="url(#pb4e948aef6)" d="M 970.9325 362.204082 
L 1004.4125 362.204082 
L 1004.4125 346.566997 
L 970.9325 346.566997 
z
" style="fill:#e377c2;"/>
   </g>
   <g id="patch_107">
    <path clip-path="url(#pb4e948aef6)" d="M 1037.8925 367.275569 
L 1071.3725 367.275569 
L 1071.3725 357.977843 
L 1037.8925 357.977843 
z
" style="fill:#e377c2;"/>
   </g>
   <g id="patch_108">
    <path clip-path="url(#pb4e948aef6)" d="M 100.4525 73.551953 
L 133.9325 73.551953 
L 133.9325 66.789971 
L 100.4525 66.789971 
z
" style="fill:#7f7f7f;"/>
   </g>
   <g id="patch_109">
    <path clip-path="url(#pb4e948aef6)" d="M 167.4125 208.791603 
L 200.8925 208.791603 
L 200.8925 202.029621 
L 167.4125 202.029621 
z
" style="fill:#7f7f7f;"/>
   </g>
   <g id="patch_110">
    <path clip-path="url(#pb4e948aef6)" d="M 234.3725 200.761749 
L 267.8525 200.761749 
L 267.8525 167.374461 
L 234.3725 167.374461 
z
" style="fill:#7f7f7f;"/>
   </g>
   <g id="patch_111">
    <path clip-path="url(#pb4e948aef6)" d="M 301.3325 223.58344 
L 334.8125 223.58344 
L 334.8125 221.047697 
L 301.3325 221.047697 
z
" style="fill:#7f7f7f;"/>
   </g>
   <g id="patch_112">
    <path clip-path="url(#pb4e948aef6)" d="M 368.2925 267.536327 
L 401.7725 267.536327 
L 401.7725 213.017843 
L 368.2925 213.017843 
z
" style="fill:#7f7f7f;"/>
   </g>
   <g id="patch_113">
    <path clip-path="url(#pb4e948aef6)" d="M 435.2525 304.72723 
L 468.7325 304.72723 
L 468.7325 284.441283 
L 435.2525 284.441283 
z
" style="fill:#7f7f7f;"/>
   </g>
   <g id="patch_114">
    <path clip-path="url(#pb4e948aef6)" d="M 502.2125 442.08 
L 535.6925 442.08 
L 535.6925 442.08 
L 502.2125 442.08 
z
" style="fill:#7f7f7f;"/>
   </g>
   <g id="patch_115">
    <path clip-path="url(#pb4e948aef6)" d="M 569.1725 351.21586 
L 602.6525 351.21586 
L 602.6525 278.524548 
L 569.1725 278.524548 
z
" style="fill:#7f7f7f;"/>
   </g>
   <g id="patch_116">
    <path clip-path="url(#pb4e948aef6)" d="M 636.1325 144.130146 
L 669.6125 144.130146 
L 669.6125 108.207114 
L 636.1325 108.207114 
z
" style="fill:#7f7f7f;"/>
   </g>
   <g id="patch_117">
    <path clip-path="url(#pb4e948aef6)" d="M 703.0925 302.191487 
L 736.5725 302.191487 
L 736.5725 286.131778 
L 703.0925 286.131778 
z
" style="fill:#7f7f7f;"/>
   </g>
   <g id="patch_118">
    <path clip-path="url(#pb4e948aef6)" d="M 770.0525 338.959767 
L 803.5325 338.959767 
L 803.5325 333.88828 
L 770.0525 333.88828 
z
" style="fill:#7f7f7f;"/>
   </g>
   <g id="patch_119">
    <path clip-path="url(#pb4e948aef6)" d="M 837.0125 333.88828 
L 870.4925 333.88828 
L 870.4925 331.352536 
L 837.0125 331.352536 
z
" style="fill:#7f7f7f;"/>
   </g>
   <g id="patch_120">
    <path clip-path="url(#pb4e948aef6)" d="M 903.9725 307.685598 
L 937.4525 307.685598 
L 937.4525 306.84035 
L 903.9725 306.84035 
z
" style="fill:#7f7f7f;"/>
   </g>
   <g id="patch_121">
    <path clip-path="url(#pb4e948aef6)" d="M 970.9325 346.566997 
L 1004.4125 346.566997 
L 1004.4125 327.126297 
L 970.9325 327.126297 
z
" style="fill:#7f7f7f;"/>
   </g>
   <g id="patch_122">
    <path clip-path="url(#pb4e948aef6)" d="M 1037.8925 357.977843 
L 1071.3725 357.977843 
L 1071.3725 339.805015 
L 1037.8925 339.805015 
z
" style="fill:#7f7f7f;"/>
   </g>
   <g id="patch_123">
    <path clip-path="url(#pb4e948aef6)" d="M 100.4525 66.789971 
L 133.9325 66.789971 
L 133.9325 32.980058 
L 100.4525 32.980058 
z
" style="fill:#bcbd22;"/>
   </g>
   <g id="patch_124">
    <path clip-path="url(#pb4e948aef6)" d="M 167.4125 202.029621 
L 200.8925 202.029621 
L 200.8925 158.921983 
L 167.4125 158.921983 
z
" style="fill:#bcbd22;"/>
   </g>
   <g id="patch_125">
    <path clip-path="url(#pb4e948aef6)" d="M 234.3725 167.374461 
L 267.8525 167.374461 
L 267.8525 134.83242 
L 234.3725 134.83242 
z
" style="fill:#bcbd22;"/>
   </g>
   <g id="patch_126">
    <path clip-path="url(#pb4e948aef6)" d="M 301.3325 221.047697 
L 334.8125 221.047697 
L 334.8125 211.749971 
L 301.3325 211.749971 
z
" style="fill:#bcbd22;"/>
   </g>
   <g id="patch_127">
    <path clip-path="url(#pb4e948aef6)" d="M 368.2925 213.017843 
L 401.7725 213.017843 
L 401.7725 211.749971 
L 368.2925 211.749971 
z
" style="fill:#bcbd22;"/>
   </g>
   <g id="patch_128">
    <path clip-path="url(#pb4e948aef6)" d="M 435.2525 284.441283 
L 468.7325 284.441283 
L 468.7325 268.804198 
L 435.2525 268.804198 
z
" style="fill:#bcbd22;"/>
   </g>
   <g id="patch_129">
    <path clip-path="url(#pb4e948aef6)" d="M 502.2125 425.175044 
L 535.6925 425.175044 
L 535.6925 422.6393 
L 502.2125 422.6393 
z
" style="fill:#bcbd22;"/>
   </g>
   <g id="patch_130">
    <path clip-path="url(#pb4e948aef6)" d="M 569.1725 278.524548 
L 602.6525 278.524548 
L 602.6525 257.393353 
L 569.1725 257.393353 
z
" style="fill:#bcbd22;"/>
   </g>
   <g id="patch_131">
    <path clip-path="url(#pb4e948aef6)" d="M 636.1325 108.207114 
L 669.6125 108.207114 
L 669.6125 92.147405 
L 636.1325 92.147405 
z
" style="fill:#bcbd22;"/>
   </g>
   <g id="patch_132">
    <path clip-path="url(#pb4e948aef6)" d="M 703.0925 286.131778 
L 736.5725 286.131778 
L 736.5725 280.215044 
L 703.0925 280.215044 
z
" style="fill:#bcbd22;"/>
   </g>
   <g id="patch_133">
    <path clip-path="url(#pb4e948aef6)" d="M 770.0525 333.88828 
L 803.5325 333.88828 
L 803.5325 315.292828 
L 770.0525 315.292828 
z
" style="fill:#bcbd22;"/>
   </g>
   <g id="patch_134">
    <path clip-path="url(#pb4e948aef6)" d="M 837.0125 331.352536 
L 870.4925 331.352536 
L 870.4925 324.590554 
L 837.0125 324.590554 
z
" style="fill:#bcbd22;"/>
   </g>
   <g id="patch_135">
    <path clip-path="url(#pb4e948aef6)" d="M 903.9725 306.84035 
L 937.4525 306.84035 
L 937.4525 304.72723 
L 903.9725 304.72723 
z
" style="fill:#bcbd22;"/>
   </g>
   <g id="patch_136">
    <path clip-path="url(#pb4e948aef6)" d="M 970.9325 327.126297 
L 1004.4125 327.126297 
L 1004.4125 323.322682 
L 970.9325 323.322682 
z
" style="fill:#bcbd22;"/>
   </g>
   <g id="patch_137">
    <path clip-path="url(#pb4e948aef6)" d="M 1037.8925 339.805015 
L 1071.3725 339.805015 
L 1071.3725 328.394169 
L 1037.8925 328.394169 
z
" style="fill:#bcbd22;"/>
   </g>
   <g id="patch_138">
    <path clip-path="url(#pb4e948aef6)" d="M 100.4525 32.980058 
L 133.9325 32.980058 
L 133.9325 27.908571 
L 100.4525 27.908571 
z
" style="fill:#17becf;"/>
   </g>
   <g id="patch_139">
    <path clip-path="url(#pb4e948aef6)" d="M 167.4125 158.921983 
L 200.8925 158.921983 
L 200.8925 145.820641 
L 167.4125 145.820641 
z
" style="fill:#17becf;"/>
   </g>
   <g id="patch_140">
    <path clip-path="url(#pb4e948aef6)" d="M 234.3725 134.83242 
L 267.8525 134.83242 
L 267.8525 106.939242 
L 234.3725 106.939242 
z
" style="fill:#17becf;"/>
   </g>
   <g id="patch_141">
    <path clip-path="url(#pb4e948aef6)" d="M 301.3325 211.749971 
L 334.8125 211.749971 
L 334.8125 145.398017 
L 301.3325 145.398017 
z
" style="fill:#17becf;"/>
   </g>
   <g id="patch_142">
    <path clip-path="url(#pb4e948aef6)" d="M 368.2925 211.749971 
L 401.7725 211.749971 
L 401.7725 201.606997 
L 368.2925 201.606997 
z
" style="fill:#17becf;"/>
   </g>
   <g id="patch_143">
    <path clip-path="url(#pb4e948aef6)" d="M 435.2525 268.804198 
L 468.7325 268.804198 
L 468.7325 257.393353 
L 435.2525 257.393353 
z
" style="fill:#17becf;"/>
   </g>
   <g id="patch_144">
    <path clip-path="url(#pb4e948aef6)" d="M 502.2125 422.6393 
L 535.6925 422.6393 
L 535.6925 230.345423 
L 502.2125 230.345423 
z
" style="fill:#17becf;"/>
   </g>
   <g id="patch_145">
    <path clip-path="url(#pb4e948aef6)" d="M 569.1725 257.393353 
L 602.6525 257.393353 
L 602.6525 249.786122 
L 569.1725 249.786122 
z
" style="fill:#17becf;"/>
   </g>
   <g id="patch_146">
    <path clip-path="url(#pb4e948aef6)" d="M 636.1325 92.147405 
L 669.6125 92.147405 
L 669.6125 64.676851 
L 636.1325 64.676851 
z
" style="fill:#17becf;"/>
   </g>
   <g id="patch_147">
    <path clip-path="url(#pb4e948aef6)" d="M 703.0925 280.215044 
L 736.5725 280.215044 
L 736.5725 265.423207 
L 703.0925 265.423207 
z
" style="fill:#17becf;"/>
   </g>
   <g id="patch_148">
    <path clip-path="url(#pb4e948aef6)" d="M 770.0525 315.292828 
L 803.5325 315.292828 
L 803.5325 295.429504 
L 770.0525 295.429504 
z
" style="fill:#17becf;"/>
   </g>
   <g id="patch_149">
    <path clip-path="url(#pb4e948aef6)" d="M 837.0125 324.590554 
L 870.4925 324.590554 
L 870.4925 309.376093 
L 837.0125 309.376093 
z
" style="fill:#17becf;"/>
   </g>
   <g id="patch_150">
    <path clip-path="url(#pb4e948aef6)" d="M 903.9725 304.72723 
L 937.4525 304.72723 
L 937.4525 304.304606 
L 903.9725 304.304606 
z
" style="fill:#17becf;"/>
   </g>
   <g id="patch_151">
    <path clip-path="url(#pb4e948aef6)" d="M 970.9325 323.322682 
L 1004.4125 323.322682 
L 1004.4125 317.405948 
L 970.9325 317.405948 
z
" style="fill:#17becf;"/>
   </g>
   <g id="patch_152">
    <path clip-path="url(#pb4e948aef6)" d="M 1037.8925 328.394169 
L 1071.3725 328.394169 
L 1071.3725 318.673819 
L 1037.8925 318.673819 
z
" style="fill:#17becf;"/>
   </g>
   <g id="patch_153">
    <path d="M 83.7125 442.08 
L 83.7125 7.2 
" style="fill:none;stroke:#262626;stroke-linecap:square;stroke-linejoin:miter;stroke-width:1.25;"/>
   </g>
   <g id="patch_154">
    <path d="M 1088.1125 442.08 
L 1088.1125 7.2 
" style="fill:none;stroke:#262626;stroke-linecap:square;stroke-linejoin:miter;stroke-width:1.25;"/>
   </g>
   <g id="patch_155">
    <path d="M 83.7125 442.08 
L 1088.1125 442.08 
" style="fill:none;stroke:#262626;stroke-linecap:square;stroke-linejoin:miter;stroke-width:1.25;"/>
   </g>
   <g id="patch_156">
    <path d="M 83.7125 7.2 
L 1088.1125 7.2 
" style="fill:none;stroke:#262626;stroke-linecap:square;stroke-linejoin:miter;stroke-width:1.25;"/>
   </g>
   <g id="legend_1">
    <g id="text_24">
     <!-- communityId -->
     <g style="fill:#262626;" transform="translate(959.45 36.815625)scale(0.2 -0.2)">
      <defs>
       <path d="M 9.328125 0 
L 9.328125 71.578125 
L 18.796875 71.578125 
L 18.796875 0 
z
" id="ArialMT-73"/>
      </defs>
      <use xlink:href="#ArialMT-99"/>
      <use x="50" xlink:href="#ArialMT-111"/>
      <use x="105.615234" xlink:href="#ArialMT-109"/>
      <use x="188.916016" xlink:href="#ArialMT-109"/>
      <use x="272.216797" xlink:href="#ArialMT-117"/>
      <use x="327.832031" xlink:href="#ArialMT-110"/>
      <use x="383.447266" xlink:href="#ArialMT-105"/>
      <use x="405.664062" xlink:href="#ArialMT-116"/>
      <use x="433.447266" xlink:href="#ArialMT-121"/>
      <use x="483.447266" xlink:href="#ArialMT-73"/>
      <use x="511.230469" xlink:href="#ArialMT-100"/>
     </g>
    </g>
    <g id="patch_157">
     <path d="M 968.697266 61.693281 
L 1002.697266 61.693281 
L 1002.697266 49.793281 
L 968.697266 49.793281 
z
" style="fill:#1f77b4;"/>
    </g>
    <g id="text_25">
     <!-- 20178 -->
     <g style="fill:#262626;" transform="translate(1016.297266 61.693281)scale(0.17 -0.17)">
      <defs>
       <path d="M 4.734375 62.203125 
L 4.734375 70.65625 
L 51.078125 70.65625 
L 51.078125 63.8125 
Q 44.234375 56.546875 37.515625 44.484375 
Q 30.8125 32.421875 27.15625 19.671875 
Q 24.515625 10.6875 23.78125 0 
L 14.75 0 
Q 14.890625 8.453125 18.0625 20.40625 
Q 21.234375 32.375 27.171875 43.484375 
Q 33.109375 54.59375 39.796875 62.203125 
z
" id="ArialMT-55"/>
      </defs>
      <use xlink:href="#ArialMT-50"/>
      <use x="55.615234" xlink:href="#ArialMT-48"/>
      <use x="111.230469" xlink:href="#ArialMT-49"/>
      <use x="166.845703" xlink:href="#ArialMT-55"/>
      <use x="222.460938" xlink:href="#ArialMT-56"/>
     </g>
    </g>
    <g id="patch_158">
     <path d="M 968.697266 85.740312 
L 1002.697266 85.740312 
L 1002.697266 73.840312 
L 968.697266 73.840312 
z
" style="fill:#ff7f0e;"/>
    </g>
    <g id="text_26">
     <!-- 21212 -->
     <g style="fill:#262626;" transform="translate(1016.297266 85.740312)scale(0.17 -0.17)">
      <use xlink:href="#ArialMT-50"/>
      <use x="55.615234" xlink:href="#ArialMT-49"/>
      <use x="111.230469" xlink:href="#ArialMT-50"/>
      <use x="166.845703" xlink:href="#ArialMT-49"/>
      <use x="222.460938" xlink:href="#ArialMT-50"/>
     </g>
    </g>
    <g id="patch_159">
     <path d="M 968.697266 109.787344 
L 1002.697266 109.787344 
L 1002.697266 97.887344 
L 968.697266 97.887344 
z
" style="fill:#2ca02c;"/>
    </g>
    <g id="text_27">
     <!-- 21220 -->
     <g style="fill:#262626;" transform="translate(1016.297266 109.787344)scale(0.17 -0.17)">
      <use xlink:href="#ArialMT-50"/>
      <use x="55.615234" xlink:href="#ArialMT-49"/>
      <use x="111.230469" xlink:href="#ArialMT-50"/>
      <use x="166.845703" xlink:href="#ArialMT-50"/>
      <use x="222.460938" xlink:href="#ArialMT-48"/>
     </g>
    </g>
    <g id="patch_160">
     <path d="M 968.697266 133.834375 
L 1002.697266 133.834375 
L 1002.697266 121.934375 
L 968.697266 121.934375 
z
" style="fill:#d62728;"/>
    </g>
    <g id="text_28">
     <!-- 21235 -->
     <g style="fill:#262626;" transform="translate(1016.297266 133.834375)scale(0.17 -0.17)">
      <defs>
       <path d="M 4.203125 18.890625 
L 12.984375 20.0625 
Q 14.5 12.59375 18.140625 9.296875 
Q 21.78125 6 27 6 
Q 33.203125 6 37.46875 10.296875 
Q 41.75 14.59375 41.75 20.953125 
Q 41.75 27 37.796875 30.921875 
Q 33.84375 34.859375 27.734375 34.859375 
Q 25.25 34.859375 21.53125 33.890625 
L 22.515625 41.609375 
Q 23.390625 41.5 23.921875 41.5 
Q 29.546875 41.5 34.03125 44.421875 
Q 38.53125 47.359375 38.53125 53.46875 
Q 38.53125 58.296875 35.25 61.46875 
Q 31.984375 64.65625 26.8125 64.65625 
Q 21.6875 64.65625 18.265625 61.421875 
Q 14.84375 58.203125 13.875 51.765625 
L 5.078125 53.328125 
Q 6.6875 62.15625 12.390625 67.015625 
Q 18.109375 71.875 26.609375 71.875 
Q 32.46875 71.875 37.390625 69.359375 
Q 42.328125 66.84375 44.9375 62.5 
Q 47.5625 58.15625 47.5625 53.265625 
Q 47.5625 48.640625 45.0625 44.828125 
Q 42.578125 41.015625 37.703125 38.765625 
Q 44.046875 37.3125 47.5625 32.6875 
Q 51.078125 28.078125 51.078125 21.140625 
Q 51.078125 11.765625 44.234375 5.25 
Q 37.40625 -1.265625 26.953125 -1.265625 
Q 17.53125 -1.265625 11.296875 4.34375 
Q 5.078125 9.96875 4.203125 18.890625 
z
" id="ArialMT-51"/>
       <path d="M 4.15625 18.75 
L 13.375 19.53125 
Q 14.40625 12.796875 18.140625 9.390625 
Q 21.875 6 27.15625 6 
Q 33.5 6 37.890625 10.78125 
Q 42.28125 15.578125 42.28125 23.484375 
Q 42.28125 31 38.0625 35.34375 
Q 33.84375 39.703125 27 39.703125 
Q 22.75 39.703125 19.328125 37.765625 
Q 15.921875 35.84375 13.96875 32.765625 
L 5.71875 33.84375 
L 12.640625 70.609375 
L 48.25 70.609375 
L 48.25 62.203125 
L 19.671875 62.203125 
L 15.828125 42.96875 
Q 22.265625 47.46875 29.34375 47.46875 
Q 38.71875 47.46875 45.15625 40.96875 
Q 51.609375 34.46875 51.609375 24.265625 
Q 51.609375 14.546875 45.953125 7.46875 
Q 39.0625 -1.21875 27.15625 -1.21875 
Q 17.390625 -1.21875 11.203125 4.25 
Q 5.03125 9.71875 4.15625 18.75 
z
" id="ArialMT-53"/>
      </defs>
      <use xlink:href="#ArialMT-50"/>
      <use x="55.615234" xlink:href="#ArialMT-49"/>
      <use x="111.230469" xlink:href="#ArialMT-50"/>
      <use x="166.845703" xlink:href="#ArialMT-51"/>
      <use x="222.460938" xlink:href="#ArialMT-53"/>
     </g>
    </g>
    <g id="patch_161">
     <path d="M 968.697266 157.881406 
L 1002.697266 157.881406 
L 1002.697266 145.981406 
L 968.697266 145.981406 
z
" style="fill:#9467bd;"/>
    </g>
    <g id="text_29">
     <!-- 21239 -->
     <g style="fill:#262626;" transform="translate(1016.297266 157.881406)scale(0.17 -0.17)">
      <defs>
       <path d="M 5.46875 16.546875 
L 13.921875 17.328125 
Q 14.984375 11.375 18.015625 8.6875 
Q 21.046875 6 25.78125 6 
Q 29.828125 6 32.875 7.859375 
Q 35.9375 9.71875 37.890625 12.8125 
Q 39.84375 15.921875 41.15625 21.1875 
Q 42.484375 26.46875 42.484375 31.9375 
Q 42.484375 32.515625 42.4375 33.6875 
Q 39.796875 29.5 35.234375 26.875 
Q 30.671875 24.265625 25.34375 24.265625 
Q 16.453125 24.265625 10.296875 30.703125 
Q 4.15625 37.15625 4.15625 47.703125 
Q 4.15625 58.59375 10.578125 65.234375 
Q 17 71.875 26.65625 71.875 
Q 33.640625 71.875 39.421875 68.109375 
Q 45.21875 64.359375 48.21875 57.390625 
Q 51.21875 50.4375 51.21875 37.25 
Q 51.21875 23.53125 48.234375 15.40625 
Q 45.265625 7.28125 39.375 3.03125 
Q 33.5 -1.21875 25.59375 -1.21875 
Q 17.1875 -1.21875 11.859375 3.4375 
Q 6.546875 8.109375 5.46875 16.546875 
z
M 41.453125 48.140625 
Q 41.453125 55.71875 37.421875 60.15625 
Q 33.40625 64.59375 27.734375 64.59375 
Q 21.875 64.59375 17.53125 59.8125 
Q 13.1875 55.03125 13.1875 47.40625 
Q 13.1875 40.578125 17.3125 36.296875 
Q 21.4375 32.03125 27.484375 32.03125 
Q 33.59375 32.03125 37.515625 36.296875 
Q 41.453125 40.578125 41.453125 48.140625 
z
" id="ArialMT-57"/>
      </defs>
      <use xlink:href="#ArialMT-50"/>
      <use x="55.615234" xlink:href="#ArialMT-49"/>
      <use x="111.230469" xlink:href="#ArialMT-50"/>
      <use x="166.845703" xlink:href="#ArialMT-51"/>
      <use x="222.460938" xlink:href="#ArialMT-57"/>
     </g>
    </g>
    <g id="patch_162">
     <path d="M 968.697266 181.928437 
L 1002.697266 181.928437 
L 1002.697266 170.028437 
L 968.697266 170.028437 
z
" style="fill:#8c564b;"/>
    </g>
    <g id="text_30">
     <!-- 21246 -->
     <g style="fill:#262626;" transform="translate(1016.297266 181.928437)scale(0.17 -0.17)">
      <use xlink:href="#ArialMT-50"/>
      <use x="55.615234" xlink:href="#ArialMT-49"/>
      <use x="111.230469" xlink:href="#ArialMT-50"/>
      <use x="166.845703" xlink:href="#ArialMT-52"/>
      <use x="222.460938" xlink:href="#ArialMT-54"/>
     </g>
    </g>
    <g id="patch_163">
     <path d="M 968.697266 205.975469 
L 1002.697266 205.975469 
L 1002.697266 194.075469 
L 968.697266 194.075469 
z
" style="fill:#e377c2;"/>
    </g>
    <g id="text_31">
     <!-- 21258 -->
     <g style="fill:#262626;" transform="translate(1016.297266 205.975469)scale(0.17 -0.17)">
      <use xlink:href="#ArialMT-50"/>
      <use x="55.615234" xlink:href="#ArialMT-49"/>
      <use x="111.230469" xlink:href="#ArialMT-50"/>
      <use x="166.845703" xlink:href="#ArialMT-53"/>
      <use x="222.460938" xlink:href="#ArialMT-56"/>
     </g>
    </g>
    <g id="patch_164">
     <path d="M 968.697266 230.0225 
L 1002.697266 230.0225 
L 1002.697266 218.1225 
L 968.697266 218.1225 
z
" style="fill:#7f7f7f;"/>
    </g>
    <g id="text_32">
     <!-- 21349 -->
     <g style="fill:#262626;" transform="translate(1016.297266 230.0225)scale(0.17 -0.17)">
      <use xlink:href="#ArialMT-50"/>
      <use x="55.615234" xlink:href="#ArialMT-49"/>
      <use x="111.230469" xlink:href="#ArialMT-51"/>
      <use x="166.845703" xlink:href="#ArialMT-52"/>
      <use x="222.460938" xlink:href="#ArialMT-57"/>
     </g>
    </g>
    <g id="patch_165">
     <path d="M 968.697266 254.069531 
L 1002.697266 254.069531 
L 1002.697266 242.169531 
L 968.697266 242.169531 
z
" style="fill:#bcbd22;"/>
    </g>
    <g id="text_33">
     <!-- 22457 -->
     <g style="fill:#262626;" transform="translate(1016.297266 254.069531)scale(0.17 -0.17)">
      <use xlink:href="#ArialMT-50"/>
      <use x="55.615234" xlink:href="#ArialMT-50"/>
      <use x="111.230469" xlink:href="#ArialMT-52"/>
      <use x="166.845703" xlink:href="#ArialMT-53"/>
      <use x="222.460938" xlink:href="#ArialMT-55"/>
     </g>
    </g>
    <g id="patch_166">
     <path d="M 968.697266 278.116562 
L 1002.697266 278.116562 
L 1002.697266 266.216563 
L 968.697266 266.216563 
z
" style="fill:#17becf;"/>
    </g>
    <g id="text_34">
     <!-- 22736 -->
     <g style="fill:#262626;" transform="translate(1016.297266 278.116562)scale(0.17 -0.17)">
      <use xlink:href="#ArialMT-50"/>
      <use x="55.615234" xlink:href="#ArialMT-50"/>
      <use x="111.230469" xlink:href="#ArialMT-55"/>
      <use x="166.845703" xlink:href="#ArialMT-51"/>
      <use x="222.460938" xlink:href="#ArialMT-54"/>
     </g>
    </g>
   </g>
  </g>
 </g>
 <defs>
  <clipPath id="pb4e948aef6">
   <rect height="434.88" width="1004.4" x="83.7125" y="7.2"/>
  </clipPath>
 </defs>
</svg>
